<?xml version="1.0" standalone="no"?>
<!DOCTYPE svg PUBLIC "-//W3C//DTD SVG 1.1//EN" "http://www.w3.org/Graphics/SVG/1.1/DTD/svg11.dtd" >
<svg xmlns="http://www.w3.org/2000/svg">
<metadata>Generated by IcoMoon</metadata>
<defs>
<font id="icomoon" horiz-adv-x="1024">
<font-face units-per-em="1024" ascent="960" descent="-64" />
<missing-glyph horiz-adv-x="1024" />
<glyph unicode="&#x20;" horiz-adv-x="512" d="" />
<glyph unicode="&#xe900;" glyph-name="left" horiz-adv-x="558" d="M468.246 916.246l-468.246-468.246 468.246-468.246 89.754 89.754-378.492 378.492 378.492 378.492-89.754 89.754z" />
<glyph unicode="&#xe901;" glyph-name="down" horiz-adv-x="1038" d="M519.001 337.724l-419.519 419.519-99.483-99.483 519.002-519.002 519.002 519.002-99.483 99.483-419.519-419.519z" />
<glyph unicode="&#xe902;" glyph-name="up" horiz-adv-x="1038" d="M519.001 558.276l419.519-419.519 99.483 99.483-519.002 519.002-519.002-519.002 99.483-99.483 419.519 419.519z" />
<glyph unicode="&#xe903;" glyph-name="right" horiz-adv-x="558" d="M0 826.492l378.492-378.492-378.492-378.492 89.754-89.754 468.246 468.246-468.246 468.246-89.754-89.754z" />
<glyph unicode="&#xe904;" glyph-name="close" d="M512 960c-282.77 0-512-229.23-512-512s229.23-512 512-512c282.77 0 512 229.23 512 512s-229.23 512-512 512zM512-17.455c-257.063 0-465.455 208.391-465.455 465.455s208.391 465.455 465.455 465.455c257.063 0 465.455-208.391 465.455-465.455s-208.391-465.455-465.455-465.455zM681.891 650.473l-169.891-169.425-169.891 169.425-32.582-32.582 169.425-169.891-169.425-169.891 32.582-32.582 169.891 169.425 169.891-169.425 32.582 32.582-169.425 169.891 169.425 169.891-32.582 32.582z" />
<glyph unicode="&#xe905;" glyph-name="close-hover" d="M512 960c-282.77 0-512-229.23-512-512s229.23-512 512-512c282.77 0 512 229.23 512 512s-229.23 512-512 512zM714.473 278.109l-33.047-33.047-169.425 169.891-169.891-169.425-33.047 33.047 169.891 169.425-169.425 169.891 33.047 33.047 169.425-169.891 169.891 169.891 33.047-33.047-169.891-169.891z" />
<glyph unicode="&#xe906;" glyph-name="close-modal" d="M926.255 960l-414.255-414.255-414.255 414.255-97.745-97.745 414.255-414.255-414.255-414.255 97.745-97.745 414.255 414.255 414.255-414.255 97.745 97.745-414.255 414.255 414.255 414.255-97.745 97.745z" />
<glyph unicode="&#xe907;" glyph-name="remove-hover" d="M512 960c-282.77 0-512-229.23-512-512s229.23-512 512-512c282.77 0 512 229.23 512 512s-229.23 512-512 512zM744.727 424.727h-465.455v46.545h465.455z" />
<glyph unicode="&#xe908;" glyph-name="add" d="M512 960c-282.77 0-512-229.23-512-512s229.23-512 512-512c282.77 0 512 229.23 512 512s-229.23 512-512 512zM512-17.455c-257.063 0-465.455 208.391-465.455 465.455s208.391 465.455 465.455 465.455c257.063 0 465.455-208.391 465.455-465.455s-208.391-465.455-465.455-465.455zM535.273 680.727h-46.545v-209.455h-209.455v-46.545h209.455v-209.455h46.545v209.455h209.455v46.545h-209.455v209.455z" />
<glyph unicode="&#xe909;" glyph-name="add-hover" d="M512 960c-282.77 0-512-229.23-512-512s229.23-512 512-512c282.77 0 512 229.23 512 512s-229.23 512-512 512zM744.727 424.727h-209.455v-209.455h-46.545v209.455h-209.455v46.545h209.455v209.455h46.545v-209.455h209.455z" />
<glyph unicode="&#xe90a;" glyph-name="thumbs-up" d="M893.575 632.32h-239.832c17.789 28.706 28.395 63.488 28.564 100.737v115.381c0.027 0.92 0.043 2.002 0.043 3.087 0 53.599-38.167 98.283-88.805 108.358-5.891 1.001-11.866 1.507-17.959 1.507-59.53 0-107.789-48.259-107.789-107.789 0-0.489 0.003-0.977 0.010-1.464l-0.001-36.035c-0.105-23.784-9.763-45.293-25.332-60.903l-199.409-199.409h-243.065v-619.789h818.661c58.911 0.809 106.356 48.754 106.356 107.78 0 26.325-9.437 50.445-25.112 69.163 30.831 19.183 50.924 52.902 50.924 91.315 0 26.88-9.839 51.462-26.113 70.341 30.811 19.212 50.904 52.931 50.904 91.343 0 26.88-9.839 51.462-26.113 70.341 30.651 19.168 50.661 52.705 50.779 90.925-1.493 58.015-48.575 104.531-106.656 105.112zM226.358-10.105h-172.463v508.227h172.463zM893.575 471.714h-24.792v-53.895c29.765 0 53.895-24.129 53.895-53.895s-24.129-53.895-53.895-53.895h-24.792v-53.895c29.765 0 53.895-24.129 53.895-53.895s-24.129-53.895-53.895-53.895h-24.792v-53.895c29.765 0 53.895-24.129 53.895-53.895s-24.129-53.895-53.895-53.895h-538.947v530.863l199.949 199.949c25.251 25.447 40.88 60.474 40.96 99.151v35.586c-0.005 0.281-0.008 0.612-0.008 0.943 0 15.857 6.848 30.114 17.747 39.976 9.54 8.571 22.162 13.787 36.001 13.787 3.292 0 6.516-0.295 9.645-0.861 25.052-4.642 44.021-26.602 44.021-52.993 0-1.438-0.056-2.863-0.167-4.272l0.012-115.148c0-0.104 0-0.227 0-0.35 0-39.471-16.073-75.188-42.030-100.964l-0.008-0.008v-53.895h307.2c29.765 0 53.895-24.129 53.895-53.895-0.605-29.298-24.498-52.817-53.884-52.817-0.004 0-0.008 0-0.011 0z" />
<glyph unicode="&#xe90b;" glyph-name="thumbs-up-active" d="M893.575 632.32h-239.832c17.789 28.706 28.395 63.488 28.564 100.737v115.381c0.027 0.92 0.043 2.002 0.043 3.087 0 53.599-38.167 98.283-88.805 108.358-5.891 1.001-11.866 1.507-17.959 1.507-59.53 0-107.789-48.259-107.789-107.789 0-0.489 0.003-0.977 0.010-1.464l-0.001-36.035c-0.105-23.784-9.763-45.293-25.332-60.903l-199.409-199.409h-243.065v-619.789h818.661c58.911 0.809 106.356 48.754 106.356 107.78 0 26.325-9.437 50.445-25.112 69.163 30.831 19.183 50.924 52.902 50.924 91.315 0 26.88-9.839 51.462-26.113 70.341 30.811 19.212 50.904 52.931 50.904 91.343 0 26.88-9.839 51.462-26.113 70.341 30.651 19.168 50.661 52.705 50.779 90.925-1.493 58.015-48.575 104.531-106.656 105.112zM226.358-10.105h-172.463v508.227h172.463z" />
<glyph unicode="&#xe90c;" glyph-name="gallery" d="M0 494.545h465.455v465.455h-465.455zM46.545 913.455h372.364v-372.364h-372.364zM0-64h465.455v465.455h-465.455zM46.545 354.909h372.364v-372.364h-372.364zM558.545 494.545h465.455v465.455h-465.455zM605.091 913.455h372.364v-372.364h-372.364zM558.545-64h465.455v465.455h-465.455zM605.091 354.909h372.364v-372.364h-372.364z" />
<glyph unicode="&#xe90d;" glyph-name="list" d="M224.781 173.268h799.219v-49.951h-799.219v49.951zM224.781 472.975h799.219v-49.951h-799.219v49.951zM224.781 772.683h799.219v-49.951h-799.219v49.951zM99.903 747.707c0-27.588-22.364-49.951-49.951-49.951s-49.951 22.364-49.951 49.951c0 27.588 22.364 49.951 49.951 49.951s49.951-22.364 49.951-49.951zM99.903 448c0-27.588-22.364-49.951-49.951-49.951s-49.951 22.364-49.951 49.951c0 27.588 22.364 49.951 49.951 49.951s49.951-22.364 49.951-49.951zM99.903 148.293c0-27.588-22.364-49.951-49.951-49.951s-49.951 22.364-49.951 49.951c0 27.588 22.364 49.951 49.951 49.951s49.951-22.364 49.951-49.951z" />
<glyph unicode="&#xe90e;" glyph-name="location" horiz-adv-x="655" d="M411.787 573.505c0-46.677-37.839-84.517-84.517-84.517s-84.517 37.839-84.517 84.517c0 46.677 37.839 84.517 84.517 84.517s84.517-37.839 84.517-84.517zM568.143 809.729c-59.604 63.537-144.092 103.118-237.825 103.118-0.774 0-1.549-0.003-2.322-0.008-0.535 0.005-1.308 0.008-2.083 0.008-93.733 0-178.221-39.582-237.662-102.943-54.79-60.011-88.252-139.984-88.252-227.772 0-24.149 2.532-47.706 7.345-70.421 17.918-63.723 46.93-121.24 85.045-171.47l235.727-357.086 234.956 357.505c37.195 48.966 66.207 106.482 83.659 168.828 5.571 24.752 8.271 49.061 8.271 74 0 87.145-32.972 166.588-87.123 226.535zM587.159 527.021c-17.524-57.435-43.799-107.361-77.7-151.076l-181.343-276.156-182.556 277.637c-33.069 42.538-59.336 92.318-76.033 146.301-4.434 19.849-6.472 38.868-6.472 58.363 0 71.195 27.17 136.044 71.707 184.744 47.775 51.826 116.271 84.309 192.355 84.309 0.352 0 0.703-0.001 1.054-0.002 0.242 0.002 0.593 0.002 0.945 0.002 76.084 0 144.581-32.483 192.379-84.337 44.306-48.622 71.338-113.323 71.338-184.338 0-19.631-2.065-38.779-5.992-57.24z" />
<glyph unicode="&#xe90f;" glyph-name="thumbs-down" d="M950.164 462.013c16.155 18.739 25.995 43.321 25.995 70.201 0 38.412-20.093 72.132-50.342 91.221 15.711 19.001 25.55 43.583 25.55 70.463 0 38.412-20.093 72.132-50.342 91.221 14.042 18.452 22.798 41.765 22.798 67.123 0 58.607-46.773 106.289-105.027 107.755l-818.797 0.003v-620.328h243.065l199.411-199.411c15.567-15.608 25.225-37.117 25.33-60.881v-35.591c-0.006-0.413-0.009-0.901-0.009-1.39 0-59.53 48.259-107.789 107.789-107.789 6.093 0 12.068 0.506 17.886 1.477 50.507 8.969 88.846 53.075 88.846 106.136 0 0.551-0.004 1.101-0.012 1.65l0.001 119.024c-0.169 37.295-10.776 72.078-29.046 101.62l240.853-0.837c59.53 0 107.789 48.259 107.789 107.789-0.561 38.219-20.928 71.56-51.274 90.276zM226.358 397.878h-172.463v508.227h172.463zM893.575 317.575h-307.2v-53.895c25.966-25.784 42.038-61.501 42.038-100.972 0-0.123 0-0.246 0-0.369v-114.777c0.126-1.383 0.198-2.992 0.198-4.617 0-26.406-18.991-48.377-44.060-53-3.039-0.533-6.156-0.808-9.337-0.808-13.232 0-25.35 4.768-34.73 12.681-11.502 9.878-18.793 24.537-18.793 40.899 0 0.377 0.004 0.753 0.012 1.128l-0.001 36.053c-0.080 38.692-15.709 73.719-40.969 99.175l-200.479 199.401v527.629h538.947c29.765 0 53.895-24.129 53.895-53.895s-24.129-53.895-53.895-53.895v-53.895h24.792c29.765 0 53.895-24.129 53.895-53.895s-24.129-53.895-53.895-53.895v-53.895h24.792c29.765 0 53.895-24.129 53.895-53.895s-24.129-53.895-53.895-53.895v-53.895h24.792c29.765 0 53.895-24.129 53.895-53.895-2.302-27.852-25.474-49.583-53.722-49.583-0.061 0-0.121 0-0.182 0z" />
<glyph unicode="&#xe910;" glyph-name="search" d="M1013.234 569.271c0 0.162 0 0.355 0 0.547 0 209.848-170.115 379.963-379.963 379.963s-379.963-170.115-379.963-379.963c0-88.17 30.031-169.325 80.423-233.796l-317.267-315.798c-9.312-8.694-15.117-21.043-15.117-34.748 0-26.231 21.264-47.495 47.495-47.495 13.705 0 26.054 5.804 34.723 15.089l316.661 316.663c63.648-49.802 144.836-79.859 233.044-79.859 209.649 0 379.64 169.792 379.962 379.366zM633.271 284.299c-157.386 0-284.972 127.586-284.972 284.972s127.586 284.972 284.972 284.972c157.386 0 284.972-127.586 284.972-284.972-0.359-157.241-127.731-284.613-284.938-284.972z" />
<glyph unicode="&#xe911;" glyph-name="thumbs-down-active" d="M950.164 462.013c16.155 18.739 25.995 43.321 25.995 70.201 0 38.412-20.093 72.132-50.342 91.221 15.711 19.001 25.55 43.583 25.55 70.463 0 38.412-20.093 72.132-50.342 91.221 14.042 18.452 22.798 41.765 22.798 67.123 0 58.607-46.773 106.289-105.027 107.755l-818.797 0.003v-620.328h243.065l199.411-199.411c15.567-15.608 25.225-37.117 25.33-60.881v-35.591c-0.006-0.413-0.009-0.901-0.009-1.39 0-59.53 48.259-107.789 107.789-107.789 6.093 0 12.068 0.506 17.886 1.477 50.507 8.969 88.846 53.075 88.846 106.136 0 0.551-0.004 1.101-0.012 1.65l0.001 119.024c-0.169 37.295-10.776 72.078-29.046 101.62l240.853-0.837c59.53 0 107.789 48.259 107.789 107.789-0.561 38.219-20.928 71.56-51.274 90.276zM226.358 397.878h-172.463v508.227h172.463z" />
<glyph unicode="&#xe912;" glyph-name="facebook-hover" d="M512-64c282.77 0 512 229.23 512 512s-229.23 512-512 512c-282.77 0-512-229.23-512-512s229.23-512 512-512zM361.472 516.267h80.213v68.267c-0.337 3.259-0.529 7.042-0.529 10.87 0 61.832 50.125 111.957 111.957 111.957 2.829 0 5.633-0.105 8.409-0.311 0.071 0.023 0.592 0.024 1.114 0.024 24.727 0 49.136-1.365 73.155-4.022l-2.96-80.63h-49.493c-38.571 0-46.080-18.432-46.080-45.056v-61.099h91.819l-11.947-92.843h-79.872v-238.933h-95.573v238.933h-80.213z" />
<glyph unicode="&#xe913;" glyph-name="remove" d="M512 960c-282.77 0-512-229.23-512-512s229.23-512 512-512c282.77 0 512 229.23 512 512s-229.23 512-512 512zM512-17.455c-257.063 0-465.455 208.391-465.455 465.455s208.391 465.455 465.455 465.455c257.063 0 465.455-208.391 465.455-465.455s-208.391-465.455-465.455-465.455zM279.273 471.273h465.455v-46.545h-465.455v46.545z" />
<glyph unicode="&#xe914;" glyph-name="instagram-hover" d="M723.285 607.744c-9.321 23.765-27.776 42.221-50.932 51.33-15.504 5.861-32.721 9.223-50.697 9.426-28.76 0.001-37.293 0.001-109.656 0.001s-80.896 0-109.568 0c-18.063-0.197-35.281-3.56-51.208-9.557-22.733-8.98-41.189-27.435-50.298-50.591-5.867-15.504-9.23-32.722-9.426-50.7-0.001-28.757-0.001-37.29-0.001-109.653s0-80.896 0-109.568c0.205-18.064 3.566-35.281 9.557-51.211 8.979-22.73 27.435-41.186 50.591-50.295 15.504-5.861 32.721-9.223 50.697-9.426 28.76-0.001 37.293-0.001 109.656-0.001s80.896 0 109.568 0c18.064 0.205 35.281 3.566 51.211 9.557 22.73 8.979 41.186 27.435 50.295 50.591 5.867 15.504 9.23 32.722 9.426 50.7 0.001 28.757 0.001 37.29 0.001 109.653s0 80.896 0 109.568c-0.197 18.063-3.56 35.281-9.557 51.208zM512 308.736c-76.913 0-139.264 62.351-139.264 139.264s62.351 139.264 139.264 139.264c76.913 0 139.264-62.351 139.264-139.264s-62.351-139.264-139.264-139.264zM656.725 559.957c-18.851 0-34.133 15.282-34.133 34.133s15.282 34.133 34.133 34.133c18.851 0 34.133-15.282 34.133-34.133-0.193-18.704-15.4-33.792-34.132-33.792-0.001 0-0.001 0-0.002 0zM602.453 448c0-49.956-40.497-90.453-90.453-90.453s-90.453 40.497-90.453 90.453c0 49.956 40.497 90.453 90.453 90.453s90.453-40.497 90.453-90.453zM512 960c-282.77 0-512-229.23-512-512s229.23-512 512-512c282.77 0 512 229.23 512 512s-229.23 512-512 512zM781.312 336.384c-0.492-23.789-5.082-46.361-13.089-67.24-13.932-35.106-42.261-63.435-77.792-77.499-20.455-7.875-43.027-12.465-66.607-12.953-29.222-0.003-38.438-0.003-111.825-0.003s-82.944 0-111.616 0c-23.789 0.492-46.361 5.082-67.24 13.089-35.106 13.932-63.435 42.261-77.499 77.792-7.882 20.455-12.472 43.028-12.953 66.61-0.003 29.219-0.003 38.435-0.003 111.821s0 82.944 0 111.616c0.485 23.788 5.075 46.361 13.088 67.238 13.932 35.108 42.261 63.438 77.792 77.501 20.455 7.875 43.027 12.465 66.607 12.953 29.222 0.003 38.438 0.003 111.825 0.003s82.944 0 111.616 0c23.789-0.492 46.361-5.082 67.24-13.089 35.106-13.932 63.435-42.261 77.499-77.792 7.875-20.455 12.465-43.027 12.953-66.607 0.003-29.222 0.003-38.438 0.003-111.825s1.365-82.944 0-111.616z" />
<glyph unicode="&#xe915;" glyph-name="minus" d="M0 512h1024v-128h-1024v128z" />
<glyph unicode="&#xe916;" glyph-name="pinterest-hover" d="M1024 448c0 282.77-229.23 512-512 512s-512-229.23-512-512c0-282.77 229.23-512 512-512s512 229.23 512 512zM473.429 331.947s-18.091-68.267-22.187-83.968c-11.354-40.746-33.137-75.46-62.308-102.258-6.849 20.32-10.709 43.868-10.709 68.317 0 18.581 2.229 36.642 6.435 53.929 6.166 26.093 41.323 174.231 41.323 174.231-6.694 14.998-10.592 32.5-10.592 50.913 0 0.581 0.004 1.161 0.012 1.74-0.001 49.064 28.671 85.928 63.828 85.928 0.202 0.003 0.44 0.005 0.679 0.005 24.507 0 44.373-19.867 44.373-44.373 0-1.927-0.123-3.825-0.361-5.687-7.283-44.733-17.492-84.376-30.855-122.536 0.214 0.687-0.541-4.267-0.541-9.396 0-28.277 22.923-51.2 51.2-51.2 0.846 0 1.688 0.021 2.524 0.061 62.687-0.005 111.157 66.214 111.157 162.129 0.029 1.053 0.045 2.293 0.045 3.536 0 77.102-62.503 139.605-139.605 139.605-2.057 0-4.103-0.044-6.138-0.132-1.645 0.097-3.915 0.147-6.196 0.147-84.642 0-153.259-68.616-153.259-153.259 0-0.168 0-0.337 0.001-0.505-0.031-1.060-0.049-2.338-0.049-3.62 0-28.434 8.692-54.839 23.564-76.701 1.451-1.409 2.529-3.944 2.529-6.732 0-1.082-0.162-2.126-0.464-3.108l-9.879-40.202c0-6.485-5.12-7.851-11.947-4.779-44.032 20.48-71.68 84.992-71.68 136.533 0 111.616 80.896 214.016 233.813 214.016 3.165 0.172 6.869 0.271 10.596 0.271 113.751 0 206.127-91.518 207.515-204.939 0.001-121.987-76.799-220.291-183.636-220.291-0.11 0-0.241-0.001-0.371-0.001-32.765 0-61.638 16.667-78.603 41.985z" />
<glyph unicode="&#xe917;" glyph-name="pinterest" horiz-adv-x="1021" d="M510.5-62.504c281.944 0 510.504 228.56 510.504 510.504s-228.56 510.504-510.504 510.504c-281.944 0-510.504-228.56-510.504-510.504s228.56-510.504 510.504-510.504zM510.5 907.454c253.75 0 459.454-205.704 459.454-459.454s-205.704-459.454-459.454-459.454c-253.75 0-459.454 205.704-459.454 459.454 0.387 253.594 205.86 459.067 459.417 459.454zM357.009 364.617c6.807-3.063 10.21-1.702 11.912 4.765l9.87 40.159c0.281 0.905 0.443 1.946 0.443 3.024 0 2.779-1.075 5.307-2.831 7.192-16.368 22.197-26.2 50.097-26.2 80.295 0 0.006 0 0.013 0 0.019 0.282 84.18 68.59 152.313 152.81 152.313 2.634 0 5.253-0.067 7.853-0.198 2.1 0.171 4.98 0.259 7.881 0.259 76.877 0 139.197-62.32 139.197-139.197 0-1.642-0.029-3.277-0.085-4.906 0.007-95.058-48.321-161.423-110.943-161.423-0.782-0.043-1.696-0.067-2.615-0.067-28.194 0-51.050 22.856-51.050 51.050 0 4.498 0.581 8.86 1.674 13.015 11.726 32.711 21.905 72.238 28.626 112.931 0.916 6.229 1.118 8.648 1.118 11.113 0 24.435-19.809 44.243-44.243 44.243-1.394 0-2.772-0.065-4.133-0.19-33.859 0.013-63.468-36.743-63.468-85.752-0.007-0.49-0.011-1.068-0.011-1.647 0-18.359 3.887-35.81 10.882-51.576s-34.355-146.895-41.842-174.462c-3.875-15.686-6.097-33.693-6.097-52.221 0-24.378 3.849-47.857 10.971-69.862 28.793 28.465 50.513 63.078 61.47 102.189 4.447 18.193 22.484 85.238 22.484 85.238 17.247-24.648 45.505-40.566 77.479-40.566 1.238 0 2.471 0.024 3.698 0.071 106.348-0.005 182.924 97.671 182.924 219.512-1.385 113.221-93.491 204.472-206.91 204.472-3.716 0-7.409-0.098-11.078-0.291-151.618 0.022-232.618-102.079-232.618-213.369 1.021-52.752 28.588-115.714 72.832-136.134z" />
<glyph unicode="&#xe918;" glyph-name="twitter-hover" d="M512 960c-282.77 0-512-229.23-512-512s229.23-512 512-512c282.77 0 512 229.23 512 512s-229.23 512-512 512zM730.795 537.429c0-4.437 0-8.875 0-13.653 0-0.022 0-0.049 0-0.076 0-164.949-133.718-298.667-298.667-298.667-59.83 0-115.551 17.593-162.273 47.887 4.887-0.937 9.239-1.069 13.622-1.069s8.735 0.131 13.053 0.39c-0.533-0.029-0.461-0.029-0.388-0.029 49.344 0 94.724 16.97 130.623 45.392-46.167 0.633-84.634 30.654-98.191 71.966 6.865-0.961 14.989-1.938 23.341-1.938s16.476 0.977 24.264 2.823c-48.929 9.855-84.7 51.833-85.021 102.223v0.035c13.388-6.69 29.166-10.606 45.859-10.606 0.798 0 1.593 0.009 2.387 0.027-28.139 19.169-46.288 50.984-46.288 87.039 0 19.354 5.23 37.486 14.353 53.061 51.723-64.18 128.65-105.807 215.399-110.374-0.988 7.102-1.978 15.291-1.978 23.712 0 58.062 47.069 105.131 105.131 105.131 30.093 0 57.234-12.644 76.398-32.91 25.763 4.855 48.66 13.757 69.274 26.083-9.099-25.241-25.384-45.398-46.574-58.295 21.933 2.379 42.349 8.153 61.275 16.653-16.223-21.903-34.227-39.907-54.904-54.346z" />
<glyph unicode="&#xe919;" glyph-name="twitter" horiz-adv-x="1020" d="M510-62.008c281.67 0 510.008 228.338 510.008 510.008s-228.338 510.008-510.008 510.008c-281.67 0-510.008-228.338-510.008-510.008s228.338-510.008 510.008-510.008zM510 907.007c253.503 0 459.007-205.504 459.007-459.007s-205.504-459.007-459.007-459.007c-253.503 0-459.007 205.504-459.007 459.007 0.386 253.347 205.66 458.621 458.97 459.007zM269.957 272.897c45.381-29.472 100.885-46.996 160.482-46.996 164.307 0 297.505 133.198 297.505 297.505 0 0.027 0 0.054 0 0.080 0 4.416 0 9.176 0 13.596 20.611 14.944 37.984 32.857 51.884 53.318-17.056-7.194-37.393-12.944-58.717-15.482 20.584 13.014 36.805 33.093 44.699 56.962-19.364-11.005-42.172-19.872-66.472-24.547-20.452 20.025-47.487 32.62-77.463 32.62-57.836 0-104.722-46.886-104.722-104.722 0-8.388 0.986-16.545 2.849-24.363-86.649 5.793-162.582 47.153-213.582 109.658-9.072-14.366-14.175-32.256-14.175-51.336 0-36.657 18.834-68.914 47.353-87.624-17.022 0.279-33.228 5.004-47.388 12.945l0.524-0.27c0.32-50.229 35.953-92.043 83.303-101.884-7.504-2.423-16.9-3.747-26.606-3.747-7.067 0-13.969 0.702-20.642 2.041 14.382-42.004 52.698-71.907 98.137-72.871-35.62-29.013-81.663-46.581-131.809-46.583-8.949 0.077-17.674 0.691-26.239 1.816z" />
<glyph unicode="&#xe91a;" glyph-name="star" horiz-adv-x="1122" d="M560.762 960l131.657-390.095h429.105l-346.21-243.81 131.657-390.095-346.21 243.81-346.21-243.81 131.657 390.095-346.21 243.81h429.105l131.657 390.095z" />
<glyph unicode="&#xe91b;" glyph-name="collection-remove-hover" horiz-adv-x="1022" d="M511-63.002c282.219 0 511.002 228.783 511.002 511.002s-228.783 511.002-511.002 511.002c-282.219 0-511.002-228.783-511.002-511.002s228.783-511.002 511.002-511.002zM281.049 606.751c26.145 26.177 62.281 42.37 102.2 42.37s76.055-16.193 102.199-42.368l25.551-25.551 25.55 25.55c26.155 26.155 62.288 42.332 102.2 42.332 79.823 0 144.533-64.71 144.533-144.533 0-39.912-16.177-76.045-42.332-102.2l-229.951-230.291-229.951 229.951c-26.197 26.2-42.399 62.393-42.399 102.371s16.202 76.17 42.399 102.371z" />
<glyph unicode="&#xe91c;" glyph-name="collection-remove" horiz-adv-x="1022" d="M511-63.002c282.219 0 511.002 228.783 511.002 511.002s-228.783 511.002-511.002 511.002c-282.219 0-511.002-228.783-511.002-511.002s228.783-511.002 511.002-511.002zM511 907.902c253.997 0 459.902-205.905 459.902-459.902s-205.905-459.902-459.902-459.902c-253.997 0-459.902 205.905-459.902 459.902 0.387 253.841 206.061 459.515 459.865 459.902zM511 172.059l229.951 229.951c26.155 26.155 42.332 62.288 42.332 102.2 0 79.823-64.71 144.533-144.533 144.533-39.912 0-76.045-16.177-102.2-42.332l-25.55-25.55-25.55 25.55c-26.155 26.155-62.288 42.332-102.2 42.332-79.823 0-144.533-64.71-144.533-144.533 0-39.912 16.177-76.045 42.332-102.2z" />
<glyph unicode="&#xe91d;" glyph-name="half-star-left" horiz-adv-x="1122" d="M560.762 960l-131.657-390.095h-429.105l346.21-243.81-131.657-390.095 346.21 243.81z" />
<glyph unicode="&#xe91e;" glyph-name="plus" d="M576-64v448h448v128h-448v448h-128v-448h-448v-128h448v-448h128z" />
<glyph unicode="&#xe91f;" glyph-name="play" d="M68.694 960v-1024l886.613 512-886.613 512z" />
<glyph unicode="&#xe920;" glyph-name="pause" d="M277.333 960h128v-1024h-128v1024zM618.666 960h128v-1024h-128v1024z" />
<glyph unicode="&#xe921;" glyph-name="book" horiz-adv-x="826" d="M71.666 838.095v-780.19c0-67.326 54.579-121.905 121.905-121.905h560.762v48.762h-12.19c-40.396 0-73.143 32.747-73.143 73.143s32.747 73.143 73.143 73.143h12.19v828.952h-560.762c-67.326 0-121.905-54.579-121.905-121.905zM645.106-15.238h-451.535c-40.396 0-73.143 32.747-73.143 73.143s32.747 73.143 73.143 73.143h451.535c-15.597-19.988-25.008-45.467-25.008-73.143s9.411-53.154 25.208-73.409zM705.571 179.81h-512c-27.647-0.075-53.097-9.415-73.426-25.078l0.283 683.364c0 40.396 32.747 73.143 73.143 73.143h512z" />
<glyph unicode="&#xe922;" glyph-name="help" horiz-adv-x="1183" d="M591.498 960c-282.77 0-512-229.23-512-512s229.23-512 512-512c282.77 0 512 229.23 512 512s-229.23 512-512 512zM591.498 0c-247.424 0-448 200.576-448 448s200.576 448 448 448c247.424 0 448-200.576 448-448s-200.576-448-448-448zM553.738 263.68h68.48v-71.68h-68.48v71.68zM595.338 704c-2.317 0.126-5.030 0.198-7.759 0.198-42.569 0-81.059-17.462-108.698-45.615-26.363-29.51-42.462-68.635-42.462-111.52 0-2.878 0.073-5.74 0.216-8.583l63.984 0.399c-0.010 0.674-0.016 1.47-0.016 2.267 0 23.977 5.191 46.742 14.511 67.232 14.046 24.795 41.226 41.956 72.415 41.956 1.396 0 2.785-0.034 4.165-0.102 2.143 0.239 4.858 0.371 7.604 0.371 23.531 0 44.798-9.694 60.024-25.306 12.768-15.303 20.509-35.155 20.509-56.815 0-0.507-0.004-1.013-0.013-1.518-0.035-17.325-5.287-33.492-14.274-46.954-5.728-8.944-12.496-16.933-20.188-23.923l-28.257-26.967c-21.523-18.945-38.986-41.935-51.296-67.848-7.25-21.533-11.118-44.856-11.118-69.082 0-4.288 0.121-8.548 0.36-12.776l63.974 0.586c-0.088 2.008-0.139 4.363-0.139 6.729 0 20.574 3.807 40.259 10.755 58.389 11.408 20.070 26.14 38.067 43.53 53.068 23.882 19.617 44.851 40.587 63.627 63.429 9.946 16.209 15.461 34.839 15.461 54.757 0 1.726-0.041 3.443-0.123 5.149 0.080 1.355 0.121 3.225 0.121 5.106 0 39.78-18.147 75.322-46.613 98.798-27.273 24.145-63.073 38.783-102.293 38.783-2.816 0-5.614-0.075-8.393-0.224z" />
<glyph unicode="&#xe923;" glyph-name="mail" horiz-adv-x="1195" d="M121.115 474.088v-538.088h952.769v538.088l-476.385 485.912zM166.485 431.44l317.59-214.146-317.59-214.6zM215.938-18.63l379.293 255.433 379.293-255.433zM1028.514-0.482l-320.766 215.961 320.766 215.961zM665.555 242.701l-72.138 48.546-69.87-45.37-338.914 228.211 412.867 421.033 412.867-421.033z" />
<glyph unicode="&#xe924;" glyph-name="phone" horiz-adv-x="1262" d="M938.505 211.408c-14.023 29.246-43.396 49.082-77.402 49.082-13.228 0-25.754-3.001-36.936-8.36l-51.484-23.935c-84.344-40.944-179.333 22.519-242.386 157.633s-49.132 245.662 35.212 286.605l43.81 20.472c29.246 14.023 49.082 43.396 49.082 77.402 0 13.228-3.001 25.754-8.36 36.936l-47.682 103.073c-13.956 29.429-43.423 49.417-77.559 49.417-13.167 0-25.639-2.974-36.781-8.286l-42.474-19.84-6.551-2.866-2.457-1.638c-172.782-90.076-165.822-389.783-58.14-622.343 92.123-195.711 269.409-368.493 431.546-368.493 0.12 0 0.262 0 0.404 0 30.511 0 59.508 6.48 85.691 18.14l-1.341-0.533h2.866l51.589 24.157c29.246 14.023 49.082 43.396 49.082 77.402 0 13.228-3.001 25.754-8.36 36.936zM506.14 914.819c5.529 2.641 12.018 4.184 18.867 4.184 17.846 0 33.246-10.475 40.386-25.612l48.019-103.45c2.641-5.529 4.184-12.018 4.184-18.867 0-17.846-10.475-33.246-25.612-40.386l-31.389-16.493-85.982 184.246zM415.655 323.593c-96.218 205.946-106.044 468.395 23.338 556.833l85.982-184.656c-85.572-57.731-99.493-182.199-31.936-327.549s171.963-214.954 271.456-186.293l92.533-198.577c-151.082-41.762-345.564 134.295-441.372 340.242zM956.52 41.901c-4.044-11.299-12.22-20.273-22.662-25.27l-41.21-18.539-92.942 198.986 40.944 18.425c5.529 2.641 12.018 4.184 18.867 4.184 17.846 0 33.246-10.475 40.386-25.612l56.618-117.78c2.201-5.075 3.481-10.986 3.481-17.196s-1.28-12.121-3.591-17.483z" />
<glyph unicode="&#xe925;" glyph-name="acrobat" horiz-adv-x="823" d="M39.136-64h512l232.727 232.727v791.273h-744.727zM574.409 25.833v121.949h121.018zM85.681 913.455h651.636v-719.127h-209.455v-211.782h-442.182zM222.060 792.902h-49.338v-190.371h27.462v82.385h20.015c3.203-0.491 6.899-0.772 10.661-0.772 17.509 0 33.598 6.080 46.27 16.245 9.629 9.228 15.705 22.367 15.705 36.926 0 0.561-0.009 1.119-0.027 1.676 0.018 0.388 0.026 0.94 0.026 1.494 0 14.1-5.7 26.869-14.921 36.128-11.998 10.624-27.874 17.113-45.266 17.113-3.737 0-7.405-0.3-10.979-0.876zM252.314 714.24c-7.181-3.413-15.604-5.406-24.492-5.406-2.030 0-4.035 0.104-6.011 0.307l-21.628-0.021v59.578h20.48c19.549 0 26.996 0 35.375-7.913 5.194-5.076 8.415-12.152 8.415-19.98 0-0.503-0.013-1.004-0.040-1.5 0.050-0.534 0.077-1.237 0.077-1.946 0-9.663-4.99-18.16-12.534-23.054zM466.423 773.818c-18.338 12.447-40.962 19.871-65.32 19.871-3.057 0-6.087-0.117-9.085-0.347l-63.835 0.025v-190.836h60.044c3.292-0.303 7.119-0.476 10.987-0.476 21.506 0 41.764 5.343 59.519 14.773 27.049 16.518 45.404 46.394 45.857 80.59 0.005 0.412 0.008 0.822 0.008 1.233 0 30.761-14.92 58.037-37.918 74.987zM443.151 638.371c-13.713-6.846-29.873-10.853-46.968-10.853-1.98 0-3.947 0.054-5.9 0.16l-35.102-0.012v139.636h34.444c2.586 0.234 5.593 0.368 8.631 0.368 13.662 0 26.693-2.7 38.589-7.596 22.827-10.23 38.914-33.387 38.914-60.301 0-0.641-0.009-1.281-0.027-1.918-0.010-24.941-12.855-46.973-32.31-59.783zM575.805 690.967h74.473v24.669h-74.473v52.596h74.473v24.669h-101.469v-190.371h26.996v88.436z" />
<glyph unicode="&#xe926;" glyph-name="instagram" d="M512-64c282.77 0 512 229.23 512 512s-229.23 512-512 512c-282.77 0-512-229.23-512-512s229.23-512 512-512zM512 908.8c254.493 0 460.8-206.307 460.8-460.8s-206.307-460.8-460.8-460.8c-254.493 0-460.8 206.307-460.8 460.8 0.388 254.337 206.463 460.412 460.763 460.8zM255.317 270.507c14.391-36.469 42.72-64.798 78.251-78.862 20.455-7.875 43.027-12.465 66.607-12.953 29.222-0.003 38.438-0.003 111.825-0.003s82.944 0 111.616 0c23.789 0.492 46.361 5.082 67.24 13.089 35.106 13.932 63.435 42.261 77.499 77.792 7.875 20.455 12.465 43.027 12.953 66.607 0.003 29.222 0.003 38.438 0.003 111.825s0 82.944 0 111.616c-0.492 23.789-5.082 46.361-13.089 67.24-13.932 35.106-42.261 63.435-77.792 77.499-20.455 7.875-43.027 12.465-66.607 12.953-29.222 0.003-38.438 0.003-111.825 0.003s-82.944 0-111.616 0c-23.789-0.492-46.361-5.082-67.24-13.089-35.106-13.932-63.435-42.261-77.499-77.792-7.875-20.455-12.465-43.027-12.953-66.607-0.003-29.222-0.003-38.438-0.003-111.825s0-82.944 0-111.616c0.492-23.789 5.082-46.361 13.089-67.24zM291.499 557.568c0.197 18.063 3.56 35.281 9.557 51.208 8.98 22.733 27.435 41.189 50.591 50.298 15.504 5.867 32.722 9.23 50.7 9.426 28.757 0.001 37.29 0.001 109.653 0.001s80.896 0 109.568 0c18.063-0.197 35.281-3.56 51.208-9.557 22.733-8.98 41.189-27.435 50.298-50.591 5.867-15.504 9.23-32.722 9.426-50.7 0.001-28.757 0.001-37.29 0.001-109.653s0-80.896 0-109.568c-0.205-18.064-3.566-35.281-9.557-51.211-8.979-22.73-27.435-41.186-50.591-50.295-15.504-5.867-32.722-9.23-50.7-9.426-28.757-0.001-37.29-0.001-109.653-0.001s-80.896 0-109.568 0c-18.063 0.197-35.281 3.56-51.208 9.557-22.733 8.98-41.189 27.435-50.298 50.591-5.867 15.504-9.23 32.722-9.426 50.7-0.001 28.757-0.001 37.29-0.001 109.653s-1.365 80.896 0 109.568zM512 308.736c76.913 0 139.264 62.351 139.264 139.264s-62.351 139.264-139.264 139.264c-76.913 0-139.264-62.351-139.264-139.264s62.351-139.264 139.264-139.264zM512 538.112c49.956 0 90.453-40.498 90.453-90.453s-40.497-90.453-90.453-90.453c-49.956 0-90.453 40.497-90.453 90.453 0 0.12 0 0.24 0.001 0.36 0 49.937 40.497 90.435 90.453 90.435zM689.152 592.725c0-17.909-14.518-32.427-32.427-32.427s-32.427 14.518-32.427 32.427c0 17.909 14.518 32.427 32.427 32.427s32.427-14.518 32.427-32.427z" />
<glyph unicode="&#xe927;" glyph-name="facebook" horiz-adv-x="1014" d="M439.399 177.598h101.401v246.741h84.5l12.506 95.993h-97.007v62.868c0 27.716 7.774 46.644 48.672 46.644h52.728v84.839c-21.752 2.376-46.978 3.73-72.521 3.73-1.478 0-2.956-0.005-4.432-0.014-2.649 0.253-5.995 0.396-9.375 0.396-64.589 0-116.948-52.36-116.948-116.948 0-3.709 0.172-7.378 0.51-10.999l-0.035-70.517h-84.5v-95.993h84.5zM507-59.003c280.010 0 507.003 226.993 507.003 507.003s-226.993 507.003-507.003 507.003c-280.010 0-507.003-226.993-507.003-507.003s226.993-507.003 507.003-507.003zM507 904.303c252.009 0 456.303-204.293 456.303-456.303s-204.293-456.303-456.303-456.303c-252.009 0-456.303 204.293-456.303 456.303 0.384 251.855 204.448 455.918 456.266 456.303z" />
<glyph unicode="&#xe928;" glyph-name="google-plus" horiz-adv-x="1014" d="M407.965 248.579c2.317-0.105 5.033-0.164 7.764-0.164 101.55 0 183.873 82.323 183.873 183.873 0 3.863-0.119 7.698-0.354 11.502 0.027-0.358 0.027-0.165 0.027 0.028 0 11.756-1.107 23.254-3.223 34.393l-188.086-1.143v-67.601h112.892c-10.298-49.476-53.54-86.118-105.34-86.118-2.658 0-5.293 0.096-7.903 0.286-69.186-0.021-125.557 56.35-125.557 125.885s56.37 125.906 125.906 125.906c0.662 0.014 1.443 0.022 2.225 0.022 29.936 0 57.134-11.721 77.255-30.826l53.355 50.408c-34.122 32.262-80.289 52.097-131.087 52.097-1.447 0-2.89-0.016-4.328-0.049-106.334-4.522-190.999-91.998-190.999-199.248s84.665-194.727 190.804-199.238zM721.293 362.486h56.784v57.122h57.122v56.784h-57.122v57.122h-56.784v-57.122h-57.122v-56.784h57.122v-57.122zM507-59.003c280.010 0 507.003 226.993 507.003 507.003s-226.993 507.003-507.003 507.003c-280.010 0-507.003-226.993-507.003-507.003s226.993-507.003 507.003-507.003zM507 904.303c252.009 0 456.303-204.293 456.303-456.303s-204.293-456.303-456.303-456.303c-252.009 0-456.303 204.293-456.303 456.303 0.384 251.855 204.448 455.918 456.266 456.303z" />
<glyph unicode="&#xe929;" glyph-name="hamburger" d="M0 166.4h1024v-76.8h-1024v76.8zM0 486.4h1024v-76.8h-1024v76.8zM0 806.4h1024v-76.8h-1024v76.8z" />
<glyph unicode="&#xe92a;" glyph-name="aa" d="M176.044 547.572l-176.044-398.289h45.405l56.159 127.054h181.221l57.354-127.054h45.405l-180.425 398.289zM119.487 314.574l70.896 164.493 74.48-164.493zM955.893 149.284h68.107l-272.031 597.433h-43.414l-264.065-597.433h68.107l84.835 190.78h271.633zM622.127 397.417l107.936 246.541 111.521-246.541z" />
<glyph unicode="&#xe92b;" glyph-name="info" d="M1024 448c0 282.77-229.23 512-512 512s-512-229.23-512-512c0-282.77 229.23-512 512-512s512 229.23 512 512zM51.2 448c0 254.493 206.307 460.8 460.8 460.8s460.8-206.307 460.8-460.8c0-254.493-206.307-460.8-460.8-460.8-253.794 1.729-459.071 207.006-460.799 460.635zM475.136 580.096h73.728v-372.224h-73.728v372.224zM512 649.728c24.203 0.285 43.747 19.829 44.032 44.005-0.287 23.843-19.66 43.038-43.517 43.038-0.181 0-0.362-0.001-0.542-0.003-24.008 0-43.493-19.484-43.493-43.52s19.485-43.52 43.52-43.52z" />
<glyph unicode="&#xe92c;" glyph-name="info-hover" d="M1024 448c0 282.77-229.23 512-512 512s-512-229.23-512-512c0-282.77 229.23-512 512-512s512 229.23 512 512zM548.864 207.872h-73.728v372.224h73.728zM512 649.728c-24.035 0-43.52 19.485-43.52 43.52s19.485 43.52 43.52 43.52c0.153 0.002 0.334 0.003 0.515 0.003 23.856 0 43.23-19.196 43.517-42.984-0.285-24.23-19.829-43.774-44.005-44.059z" />
<glyph unicode="&#xe92d;" glyph-name="google-plus-hover" d="M1024 448c0 282.77-229.23 512-512 512s-512-229.23-512-512c0-282.77 229.23-512 512-512s512 229.23 512 512zM670.72 476.672h57.344v57.685h57.003v-57.344h57.344v-57.344h-57.344v-57.344h-56.661v57.003h-57.685zM210.944 448c0 0.101 0 0.221 0 0.342 0 111.034 90.011 201.045 201.045 201.045 0.12 0 0.24 0 0.36 0 1.218 0.029 2.675 0.045 4.136 0.045 51.3 0 97.921-20.030 132.47-52.695l-54.704-52.48c-20.27 19.246-47.736 31.084-77.966 31.084-0.79 0-1.578-0.008-2.364-0.024-70.104 0.002-127.029-56.924-127.029-127.145s56.926-127.147 127.147-127.147c2.282-0.171 4.944-0.268 7.628-0.268 52.31 0 95.977 37.003 106.255 86.262l-115.93 0.705v68.267h190.123c1.954-10.115 3.073-21.747 3.073-33.64 0-0.173 0-0.347-0.001-0.52 0.211-3.288 0.331-7.161 0.331-11.061 0-102.551-83.134-185.685-185.685-185.685-2.758 0-5.501 0.060-8.229 0.179 0.387-0.013 0.384-0.013 0.382-0.013-111.034 0-201.045 90.011-201.045 201.045 0 0.6 0.003 1.2 0.008 1.798z" />
<glyph unicode="&#xe92e;" glyph-name="half-star-right" horiz-adv-x="1122" d="M1121.524 569.905h-429.105l-131.657 390.095v-151.162l87.771-253.562 9.752-34.133h307.2l-219.429-156.038-29.257-19.505 14.629-34.133 82.895-248.686-224.305 156.038-29.257 19.505v-58.514l346.21-243.81-131.657 390.095z" />
<glyph unicode="&#xe92f;" glyph-name="collection-add-hover" horiz-adv-x="1014" d="M507-59.003c280.010 0 507.003 226.993 507.003 507.003s-226.993 507.003-507.003 507.003c-280.010 0-507.003-226.993-507.003-507.003s226.993-507.003 507.003-507.003zM278.849 605.509c25.94 25.972 61.794 42.039 101.401 42.039s75.46-16.067 101.4-42.037l25.351-25.351 25.35 25.35c25.95 25.95 61.801 42.001 101.401 42.001 79.198 0 143.402-64.203 143.402-143.402 0-39.6-16.051-75.45-42.001-101.401l-228.151-228.489-228.151 228.151c-25.992 25.995-42.067 61.905-42.067 101.57s16.076 75.574 42.067 101.57z" />
<glyph unicode="&#xe930;" glyph-name="collection-add" horiz-adv-x="1014" d="M507-59.003c280.010 0 507.003 226.993 507.003 507.003s-226.993 507.003-507.003 507.003c-280.010 0-507.003-226.993-507.003-507.003s226.993-507.003 507.003-507.003zM507 904.303c252.009 0 456.303-204.293 456.303-456.303s-204.293-456.303-456.303-456.303c-252.009 0-456.303 204.293-456.303 456.303 0.384 251.855 204.448 455.918 456.266 456.303zM507 174.218l228.151 228.151c25.95 25.95 42.001 61.801 42.001 101.401 0 79.198-64.203 143.402-143.402 143.402-39.6 0-75.45-16.051-101.401-42.001l-25.35-25.35-25.35 25.35c-25.95 25.95-61.801 42.001-101.401 42.001-79.198 0-143.402-64.203-143.402-143.402 0-39.6 16.051-75.45 42.001-101.401z" />
<glyph unicode="&#xe931;" glyph-name="rate-hover" horiz-adv-x="1014" d="M507 955.003c-280.010 0-507.003-226.993-507.003-507.003s226.993-507.003 507.003-507.003c280.010 0 507.003 226.993 507.003 507.003s-226.993 507.003-507.003 507.003zM691.365 186.202l-184.365 134.587-184.365-134.587 70.059 215.707-185.287 138.273h230.456l69.137 215.707 70.52-215.707h230.456l-184.365-134.587z" />
<glyph unicode="&#xe932;" glyph-name="rate" horiz-adv-x="1014" d="M507 955.003c-280.010 0-507.003-226.993-507.003-507.003s226.993-507.003 507.003-507.003c280.010 0 507.003 226.993 507.003 507.003s-226.993 507.003-507.003 507.003zM507-12.912c-254.554 0-460.912 206.357-460.912 460.912s206.357 460.912 460.912 460.912c254.554 0 460.912-206.357 460.912-460.912s-206.357-460.912-460.912-460.912zM577.52 538.339l-70.52 217.551-70.52-217.551h-229.073l185.287-134.587-70.98-217.551 185.287 134.587 185.287-134.587-70.98 217.551 185.287 134.587h-229.073z" />
<glyph unicode="&#xe933;" glyph-name="ribbon" d="M281.6-64l230.4 230.4 230.4-230.4v1024h-460.8zM358.4 883.2h307.2v-761.856l-153.6 153.6-153.6-153.6z" />
<glyph unicode="&#xe934;" glyph-name="pencil" d="M367.288 447.744l-256.128-256.128 144.968-144.456 768.384 768.384-145.481 144.456zM457.957 357.075l-201.829-201.317-36.37 35.858 659.274 659.274 36.37-36.37zM52.762 133.731l-52.762-197.731 197.731 52.762-144.968 144.968z" />
<glyph unicode="&#xe935;" glyph-name="randomize" d="M140.219 307.981l140.219 140.219h-108.97c0.246 187.884 152.613 340.099 340.532 340.099 94.027 0 179.154-38.109 240.777-99.724l42.466 42.467c-72.495 72.473-172.635 117.298-283.243 117.298-221.088 0-400.349-179.089-400.626-400.113l-111.374-0.027zM912.626 448.2h111.374l-140.219 140.219-140.219-140.219h108.97c-0.246-187.884-152.613-340.099-340.532-340.099-94.027 0-179.154 38.109-240.777 99.724l-42.466-42.868c72.495-72.473 172.634-117.298 283.243-117.298 221.229 0 400.577 179.318 400.626 400.535z" />
<glyph unicode="&#xe936;" glyph-name="gifbox-with-ribbon-on-top" d="M743.607 703.653c52.59 13.087 91.973 57.105 97.99 111.194 0.563 4.914 0.855 9.931 0.855 15.015 0 71.935-58.315 130.25-130.25 130.25-50.6 0-94.461-28.854-116.027-71.006l-84.175-166.034-83.833 164.825c-8.524 17.298-20.176 31.828-34.344 43.391-22.338 17.986-50.759 28.76-81.697 28.76-72.022 0-130.408-58.386-130.408-130.408 0-41.085 18.999-77.732 48.691-101.636 14.218-11.306 30.896-19.671 49.098-24.167l40.197-10.131h-257.658v-236.818h47.364v-520.999h805.18v520.999h47.364v236.818h-258.131zM638.459 865.163c13.934 27.316 41.858 45.697 74.075 45.697 45.777 0 82.886-37.109 82.886-82.886 0-38.438-26.165-70.765-61.656-80.142l-175.823-44.178zM292.232 749.596c-36.626 9.11-63.339 41.71-63.339 80.548 0 42.561 32.079 77.63 73.378 82.347l9.854 0.035c32.36-0.357 60.184-19.418 73.201-46.866l82.151-160.112zM867.225-16.746h-710.453v473.636h710.453zM914.589 646.343v-142.091h-805.18v142.091z" />
<glyph unicode="&#xe937;" glyph-name="cart" horiz-adv-x="940" d="M877.522 719.757h-660.703l-38.586 222.015c-1.902 10.524-10.993 18.402-21.924 18.402-0.014 0-0.028 0-0.042 0h-93.79v-44.522h75.093l137.424-790.409c-41.086-11.671-70.674-48.856-70.674-92.952 0-53.275 43.188-96.464 96.464-96.464s96.464 43.188 96.464 96.464c0 19.43-5.745 37.519-15.628 52.659l236.192-0.37c-9.436-14.618-15.044-32.477-15.044-51.645 0-53.112 43.055-96.167 96.167-96.167s96.167 43.055 96.167 96.167c0 53.112-43.055 96.167-96.167 96.167-0.033 0-0.065 0-0.098 0h-379.32l-25.229 145.141h495.082l12.169 62.627 10.982 56.394 7.123 32.649zM699.435 84.58c28.687 0 51.942-23.255 51.942-51.942s-23.255-51.942-51.942-51.942c-28.687 0-51.942 23.255-51.942 51.942 0 0.001 0 0.002 0 0.003 0 28.478 22.918 51.603 51.317 51.938zM299.926 84.58c28.687 0 51.942-23.255 51.942-51.942s-23.255-51.942-51.942-51.942c-28.687 0-51.942 23.255-51.942 51.942s23.255 51.942 51.942 51.942zM757.016 344.29v0l-5.046-25.526h-465.401l-62.034 356.174h598.669z" />
<glyph unicode="&#xe938;" glyph-name="full-star-empty" horiz-adv-x="1122" d="M560.762 808.838l87.771-253.562 9.752-34.133h307.2l-219.429-156.038-29.257-19.505 9.752-34.133 82.895-248.686-224.305 156.038-29.257 19.505-29.257-19.505-224.305-156.038 87.771 248.686 9.752 34.133-29.257 19.505-214.552 156.038h307.2l9.752 34.133 87.771 253.562zM560.762 960l-131.657-390.095h-429.105l346.21-243.81-131.657-390.095 346.21 243.81 346.21-243.81-131.657 390.095 346.21 243.81h-429.105l-131.657 390.095z" />
<glyph unicode="&#xe939;" glyph-name="icon-free-shipping" d="M512 960c-282.77 0-512-229.23-512-512s229.23-512 512-512c282.77 0 512 229.23 512 512s-229.23 512-512 512zM512-29.867c-263.918 0-477.867 213.948-477.867 477.867s213.948 477.867 477.867 477.867c263.918 0 477.867-213.948 477.867-477.867s-213.948-477.867-477.867-477.867zM750.933 567.467v68.267h-580.267v-375.467h69.973c8.184-39.271 42.509-68.352 83.627-68.352s75.443 29.081 83.53 67.798l242.785 0.555c8.184-39.271 42.509-68.352 83.627-68.352s75.443 29.081 83.53 67.798l68.364 0.555v307.2h-135.168zM853.333 533.333v-68.267h-102.4v68.267h102.4zM785.067 277.333c0-28.277-22.923-51.2-51.2-51.2s-51.2 22.923-51.2 51.2c0 28.277 22.923 51.2 51.2 51.2s51.2-22.923 51.2-51.2zM204.8 601.6h512v-240.64c-33.51-7.104-59.456-33.050-66.46-65.999l-242.446-0.561c-8.184 39.271-42.509 68.352-83.627 68.352s-75.443-29.081-83.53-67.798l-35.937-0.555v307.2zM375.467 277.333c0-28.277-22.923-51.2-51.2-51.2s-51.2 22.923-51.2 51.2c0 28.277 22.923 51.2 51.2 51.2s51.2-22.923 51.2-51.2zM819.2 294.4c-7.347 33.946-34.046 60.072-67.732 66.475l-0.535 70.058h102.4v-136.533h-34.133zM298.667 446.635h39.253v19.797h-39.253v38.912h39.253v19.456h-58.709v-136.533h19.456v58.368zM547.499 407.723h-38.912v38.912h38.912v19.797h-38.912v38.912h38.912v19.456h-58.709v-136.533h58.709v19.456zM642.389 407.723h-38.912v38.912h38.912v19.797h-38.912v38.912h38.912v19.456h-58.368v-136.533h58.368v19.456zM393.899 448h12.971l25.6-58.368h21.504l-26.965 58.368c15.004 5.628 25.489 19.851 25.489 36.523 0 21.491-17.421 38.912-38.912 38.912-0.081 0-0.162 0-0.242-0.001h-37.876v-136.533h19.456v61.099zM393.899 506.368h19.456c10.745 0 19.456-8.711 19.456-19.456s-8.711-19.456-19.456-19.456h-19.456v37.888z" />
<glyph unicode="&#xe93a;" glyph-name="icon-abc" d="M301.233 209.921c-18.233-17.653-42.301-29.379-69.037-32.016-21.809-0.038-39.099 17.252-39.099 38.581-27.089-23.978-62.924-38.619-102.178-38.619-0.057 0-0.115 0-0.174 0-0.45-0.009-0.993-0.013-1.536-0.013-49.27 0-89.211 39.941-89.211 89.211 0 0.004 0 0.009 0 0.015 0 57.156 47.116 103.114 193.099 128.989v31.282c0.39 2.584 0.613 5.566 0.613 8.6 0 33.487-27.146 60.634-60.634 60.634-3.627 0-7.181-0.319-10.633-0.93-43.233-2.097-81.899-21.569-109.2-51.569l-0.115 56.256c30.737 26.637 71.124 42.868 115.301 42.868 0.196 0 0.393 0 0.588-0.001 3.486 0.415 7.559 0.652 11.688 0.652 58.442 0 105.819-47.377 105.819-105.819 0-1.859-0.049-3.707-0.143-5.542l0.010-192.841c0-14.675 0-18.924 9.269-18.924 17.843 4.507 33.237 13.258 45.606 25.136l-0.034-38.651zM192.326 360.925c-89.983-16.606-138.646-46.344-138.646-89.983 0.559-30.282 25.24-54.616 55.603-54.616 1.499 0 2.983 0.059 4.451 0.175 30.591 2.954 57.577 17.211 76.959 38.51l0.087 105.914zM360.321 718.543h54.068v-219.746c29.391 26.646 68.262 43.313 111.004 44.408 98.701 0.004 154.7-84.572 154.7-174.557 0.31-3.938 0.487-8.525 0.487-13.154 0-98.328-79.709-178.037-178.037-178.037-4.248 0-8.46 0.149-12.635 0.441-46.349 0.156-90.925 9.939-131.374 27.454l2.172 513.191zM414.389 239.657c24.028-8.718 51.763-13.804 80.671-13.903 71.578 0.731 129.286 58.891 129.286 130.528 0 2.855-0.091 5.689-0.272 8.5 0.019 74.926-48.642 130.924-109.661 130.924-40.377-3.156-75.692-22.522-99.837-51.517l-0.188-204.532zM1014.54 464.038c-27.227 17.642-60.384 28.357-96.004 28.963-93.234 0.001-116.019-88.437-116.019-133.623-0.229-2.805-0.36-6.073-0.36-9.371 0-67.4 54.638-122.038 122.038-122.038 1.756 0 3.505 0.037 5.244 0.11 33.877 0.805 65.902 8.983 94.561 22.987l-1.349-53.891c-29.74-12.057-64.224-19.13-100.34-19.31-2.986-0.181-6.389-0.284-9.818-0.284-92.568 0-167.61 75.041-167.61 167.61 0 4.449 0.174 8.858 0.513 13.219-0.037 115.282 74.886 184.797 172.98 184.797 34.921-0.406 67.923-8.188 97.66-21.857l-1.497-57.312z" />
<glyph unicode="&#xe93b;" glyph-name="icon-arrow-counterclockwise" d="M124.965 447.905h-124.965l157.331-157.331 157.331 157.331h-122.269c0 0.2-0.001 0.436-0.001 0.672 0 211.271 171.268 382.539 382.539 382.539s382.539-171.268 382.539-382.539c0-211.271-171.268-382.539-382.539-382.539-105.691 0-201.371 42.863-270.606 112.154l-47.651-48.096c81.342-81.318 193.702-131.613 317.809-131.613 248.262 0 449.517 201.256 449.517 449.517s-201.256 449.517-449.517 449.517c-248.262 0-449.517-201.256-449.517-449.517 0-0.034 0-0.068 0-0.102z" />
<glyph unicode="&#xe93c;" glyph-name="icon-bubble" horiz-adv-x="887" d="M745.604 907.26h-603.774c-73.814-0.246-133.585-60.018-133.833-133.809v-374.93c0-74.155 60.114-134.269 134.269-134.269h52.749v-275.512l193.993 275.512h355.725c74.155 0 134.269 60.114 134.269 134.269v374.907c-0.245 73.662-59.77 133.339-133.349 133.833zM836.279 398.521c0-50.079-40.596-90.675-90.675-90.675h-378.394l-128.601-181.786v181.786h-96.778c-49.89 0.248-90.239 40.749-90.239 90.674 0 0 0 0.001 0 0.001v374.906c0.246 49.739 40.5 89.993 90.215 90.239h603.797c0 0 0.001 0 0.001 0 49.924 0 90.426-40.349 90.674-90.215v-374.93zM225.966 728.090h435.938v-43.594h-435.938v43.594zM225.966 608.207h435.938v-43.594h-435.938v43.594zM225.966 488.323h217.969v-43.594h-217.969v43.594z" />
<glyph unicode="&#xe93d;" glyph-name="icon-cafe" horiz-adv-x="1053" d="M805.222 45.392h-805.221c0-34.208 27.732-61.94 61.94-61.94h681.341c34.208 0 61.94 27.732 61.94 61.94zM226.702 107.33h351.82c0 0 0 0 0.001 0 125.204 0 226.701 101.497 226.701 226.701 0 0.218 0 0.436-0.001 0.654v38.988h103.44c0.006 0 0.013 0 0.021 0 79.705 0 144.32 64.614 144.32 144.32 0 0.871-0.007 1.74-0.022 2.608l0.001 247.629c0 79.705-64.614 144.32-144.32 144.32h-908.66v-577.901c0-0.184-0.001-0.401-0.001-0.619 0-125.204 101.497-226.701 226.701-226.701 0 0 0.001 0 0.001 0zM805.222 850.611h103.44c45.497 0 82.381-36.882 82.381-82.381v-247.761c0-45.497-36.882-82.381-82.381-82.381h-103.44v412.521zM61.941 850.611h681.341v-515.961c0-90.994-73.766-164.76-164.76-164.76h-351.82c-90.994 0-164.76 73.766-164.76 164.76v515.961z" />
<glyph unicode="&#xe93e;" glyph-name="icon-device" d="M800 896v-895.999h-576v895.999h576zM800 960h-576c-35.347 0-64-28.654-64-64v-895.999c0-35.347 28.654-64 64-64h576c35.347 0 64 28.654 64 64v895.999c0 35.347-28.654 64-64 64v0zM668.8 764.799v-553.6h-313.601v553.6h313.601zM720 816h-414.080v-656h415.999v656zM561.92 55.68h-127.999c-1.182-0.204-2.543-0.321-3.932-0.321-13.432 0-24.32 10.889-24.32 24.32s10.889 24.32 24.32 24.32c1.389 0 2.75-0.116 4.075-0.339l127.857 0.020c1.182 0.204 2.543 0.321 3.932 0.321 13.432 0 24.32-10.889 24.32-24.32s-10.889-24.32-24.32-24.32c-1.389 0-2.75 0.116-4.075 0.339z" />
<glyph unicode="&#xe93f;" glyph-name="icon-ribbon-hover" d="M742.4-64v1024h-460.8v-1024l230.4 230.4 230.4-230.4z" />
<glyph unicode="&#xe940;" glyph-name="icon-science" d="M511.448 918.486c76.385 0 138.931-210.888 138.931-470.486s-61.994-470.486-138.931-470.486-138.931 210.888-138.931 470.486 61.994 470.486 138.931 470.486zM511.448 960c-123.988 0-180.445-265.132-180.445-512s55.352-512 180.445-512 180.445 265.686 180.445 512-55.352 512-180.445 512v0zM179.893 712.025c89.669 0 242.439-55.352 400.744-143.913 225.279-130.076 376.388-288.934 338.196-355.355-15.235-18.22-37.973-29.726-63.399-29.726-4.388 0-8.695 0.343-12.897 1.002-89.204-0.060-241.973 55.291-400.277 143.853-226.94 129.522-376.388 290.594-337.643 355.355 15.235 18.22 37.973 29.726 63.399 29.726 4.388 0 8.695-0.343 12.897-1.002zM180.447 753.539v0c-4.326 0.568-9.328 0.892-14.405 0.892-39.805 0-74.96-19.913-96.044-50.322-62.247-107.768 139.232-289.321 352.887-412.753 159.966-92.436 321.592-149.448 421.777-149.448 4.326-0.568 9.328-0.892 14.405-0.892 39.805 0 74.96 19.913 96.044 50.322 62.247 107.768-139.232 289.321-352.887 412.753-159.966 91.883-321.592 149.448-421.777 149.448v0zM843.001 712.025c3.737 0.6 8.045 0.943 12.432 0.943 25.427 0 48.165-11.506 63.294-29.595 38.299-66.552-110.597-225.41-338.091-355.486-158.305-91.33-311.075-143.913-400.744-143.913-3.588-0.552-7.727-0.869-11.94-0.869-25.393 0-48.104 11.475-63.233 29.523-38.297 66.55 110.598 225.409 338.092 355.484 158.305 91.33 311.075 143.913 400.744 143.913zM843.555 753.539c-100.186 0-261.811-55.352-421.777-149.448-213.657-123.434-415.135-304.985-353.142-412.367 21.338-30.794 56.492-50.708 96.297-50.708 5.078 0 10.080 0.325 14.986 0.953 99.605-0.060 261.231 55.29 421.195 149.387 213.657 123.434 415.135 304.985 353.142 412.367-21.338 30.794-56.492 50.708-96.297 50.708-5.078 0-10.080-0.325-14.986-0.953l0.582 0.060zM566.798 448c0-30.57-24.781-55.352-55.352-55.352s-55.352 24.781-55.352 55.352c0 30.57 24.781 55.352 55.352 55.352s55.352-24.781 55.352-55.352z" />
<glyph unicode="&#xe941;" glyph-name="icon-store" horiz-adv-x="1049" d="M859.661 680.181c0-40.806-33.080-73.886-73.886-73.886s-73.886 33.080-73.886 73.886c0 40.806 33.080 73.886 73.886 73.886s73.886-33.080 73.886-73.886zM978.618 871.546v0c-47.369 50.974-114.782 82.764-189.62 82.764-0.873 0-1.745-0.004-2.616-0.013l0.133 0.001c-0.246 0.001-0.537 0.001-0.829 0.001-75.582 0-143.751-31.746-191.898-82.631-43.528-47.866-70.108-111.589-70.108-181.52 0-3.375 0.062-6.736 0.185-10.083l-523.866 0.484v-55.414h73.886v-683.445h738.86v311.429l164.027 249.366c29.238 37.356 52.048 81.351 65.828 129.172 4.314 19.353 6.402 38.464 6.402 58.063 0 70.135-26.736 134.026-70.572 182.036zM535.302-2.895h-184.715v295.544h184.715v-295.544zM590.716-2.895v350.59h-295.174v-350.59h-165.136v628.031h401.2c15.105-46.725 36.47-87.313 63.57-123.345l163.261-248.302v-256.015h-167.352zM988.961 646.932c-12.896-43.429-32.617-81.207-58.214-114.197l-144.972-220.877-145.556 221.658c-25.022 32.206-44.744 69.985-57.007 110.985-3.375 15.286-4.95 30.057-4.95 45.195 0 55.469 21.15 105.998 55.826 143.962 37.368 39.897 90.589 64.861 149.64 64.861 0.59 0 1.179-0.002 1.767-0.007l-0.090 0.001c0.546 0.005 1.191 0.008 1.836 0.008 59.001 0 112.172-24.966 149.523-64.912 34.982-38.050 56.359-88.871 56.359-144.685 0-14.861-1.515-29.368-4.4-43.375z" />
<glyph unicode="&#xe942;" glyph-name="user" d="M512 396.8c113.108 0 204.8 91.692 204.8 204.8s-91.692 204.8-204.8 204.8c-113.108 0-204.8-91.692-204.8-204.8s91.692-204.8 204.8-204.8zM512 755.2c84.831 0 153.6-68.769 153.6-153.6s-68.769-153.6-153.6-153.6c-84.831 0-153.6 68.769-153.6 153.6 0.194 84.753 68.847 153.406 153.581 153.6zM512-64c282.77 0 512 229.23 512 512s-229.23 512-512 512c-282.77 0-512-229.23-512-512s229.23-512 512-512zM264.192 60.245v23.211c0.194 111.71 90.7 202.217 202.392 202.411h90.131c111.71-0.194 202.217-90.7 202.411-202.392v-23.571c-69.874-45.498-155.378-72.557-247.201-72.557-92.045 0-177.741 27.189-249.492 73.974zM512 908.8c0.086 0 0.188 0 0.291 0 254.304 0 460.459-206.154 460.459-460.459 0-140.648-63.060-266.568-162.449-351.028-8.635 132.971-118.793 238.247-253.572 238.388h-90.126c-134.792-0.141-244.951-105.417-252.895-238.233-100.081 84.305-163.141 210.226-163.141 350.874 0 254.304 206.154 460.459 460.459 460.459 0.342 0 0.685 0 1.027-0.001z" />
<glyph unicode="&#xe943;" glyph-name="valid" d="M512 960c-282.77 0-512-229.23-512-512s229.23-512 512-512c282.77 0 512 229.23 512 512s-229.23 512-512 512zM512-17.455c-257.063 0-465.455 208.391-465.455 465.455s208.391 465.455 465.455 465.455c257.063 0 465.455-208.391 465.455-465.455s-208.391-465.455-465.455-465.455zM442.181 329.309l-146.153 146.618-33.047-33.047 179.2-179.2 319.302 319.302-33.047 33.047-286.255-286.72z" />
<glyph unicode="&#xe944;" glyph-name="check" horiz-adv-x="1380" d="M364.475 83.525l-364.475 364.475 147.525 147.525 364.475-364.475 728.949 728.949 138.847-147.525-867.797-876.475-147.525 147.525z" />
<glyph unicode="&#xe945;" glyph-name="icon-toys" d="M856.686 868.733c-49.322-0.444-93.523-21.996-124.072-56.047-63.065 35.443-138.33 56.421-218.493 56.421s-155.428-20.979-220.602-57.745c-28.828 36.715-74.26 59.044-124.906 59.044-93.123 0-168.613-75.491-168.613-168.613 0-64.615 36.346-120.741 89.707-149.049-7.928-31.942-13.051-68.127-13.138-105.495 4.384-233.82 194.923-421.646 429.331-421.646 2.594 0 5.183 0.023 7.765 0.069 1.974-0.052 4.76-0.079 7.551-0.079 234.411 0 424.951 187.832 429.325 421.197-0.081 37.828-5.203 74.012-14.721 108.371 53.219 26.385 88.179 81.591 88.179 144.963 0 92.666-74.751 167.871-167.243 168.607zM58.022 700.12c0 0.040 0 0.086 0 0.134 0 62.081 50.327 112.409 112.409 112.409 30.096 0 57.429-11.828 77.606-31.088-60.743-44.757-108.373-103.936-138.367-172.584-31.715 17.668-51.641 52.071-51.648 91.128zM894.344 447.2c-4.679-202.795-170.183-365.402-373.666-365.402-2.602 0-5.198 0.026-7.788 0.080-1.647-0.046-4.047-0.069-6.451-0.069-203.479 0-368.981 162.601-373.658 364.956 4.677 203.225 170.178 365.826 373.658 365.826 2.404 0 4.803-0.023 7.197-0.068 1.843 0.052 4.439 0.078 7.041 0.078 203.483 0 368.986-162.607 373.658-364.967zM917.949 606.258c-30.905 71.332-78.347 130.502-137.685 174.549 19.083 20.484 46.732 32.618 77.215 32.618 62.081 0 112.409-50.327 112.409-112.409 0-39.632-20.511-74.475-51.497-94.491zM763.387 541.061c0-25.764-20.886-46.649-46.649-46.649s-46.649 20.886-46.649 46.649c0 25.764 20.886 46.649 46.649 46.649s46.649-20.886 46.649-46.649zM357.591 541.061c0-25.764-20.886-46.649-46.649-46.649s-46.649 20.886-46.649 46.649c0 25.764 20.886 46.649 46.649 46.649s46.649-20.886 46.649-46.649zM626.81 269.032c-49.976 0-90.489 40.513-90.489 90.489v18.547c1.67 1.218 3.139 2.509 4.484 3.921l22.494 29.802c5.357 5.946 8.635 13.858 8.635 22.535 0 18.625-15.098 33.723-33.723 33.723-0.665 0-1.326-0.019-1.981-0.057l-44.873 0.004c-0.565 0.034-1.225 0.053-1.89 0.053-18.625 0-33.723-15.098-33.723-33.723 0-8.677 3.278-16.589 8.662-22.565l22.455-29.758c1.358-1.423 2.828-2.714 4.404-3.87l0.093-18.050c0.006-0.376 0.009-0.82 0.009-1.265 0-49.976-40.513-90.489-90.489-90.489-42.039 0-77.382 28.667-87.548 67.518l-43.417-11.173c16.030-58.226 68.507-100.287 130.809-100.287 47.069 0 88.532 24.008 112.808 60.448 24.898-36.44 66.36-60.448 113.429-60.448 62.301 0 114.778 42.061 130.585 99.336l-43.053 12.755c-10.553-39.126-45.722-67.445-87.506-67.445-0.061 0-0.122 0-0.183 0z" />
<glyph unicode="&#xe946;" glyph-name="icon-pen" horiz-adv-x="551" d="M550.856 410.099l-12.602 11.074c-238.481 210.986-211.941 517.442-211.559 519.733l1.718 19.094h-105.971l1.718-19.094c0-3.055 27.495-308.938-211.559-520.497l-12.602-10.311 11.265-12.602c73.129-81.912 67.401-158.478 67.401-160.77v-300.727h33.223v144.349l327.268-2.1v-142.058h33.414v302.255s-5.728 76.375 67.401 159.242zM256.43 475.018c-14.612-6.383-24.639-20.709-24.639-37.377 0-0.285 0.003-0.569 0.009-0.853-0.004-0.144-0.005-0.363-0.005-0.583 0-22.462 17.631-40.807 39.809-41.95 0.22-0.005 0.36-0.006 0.5-0.006 21.934 0 39.715 17.781 39.715 39.715 0 0.404-0.006 0.806-0.018 1.206 0.004 0.12 0.006 0.332 0.006 0.543 0 16.089-8.845 30.113-21.937 37.474l2.457 406.236c4.583-104.252 37.042-309.892 211.75-473.144-72.175-87.64-64.919-167.453-64.919-169.553v-125.255l-327.268 2.291v120.673c0 3.437 7.065 83.44-65.11 171.844 208.313 194.375 214.614 447.177 211.941 517.824z" />
<glyph unicode="&#xe947;" glyph-name="icon-t" horiz-adv-x="732" d="M570.963 672.155v-4.254q0-83.187 0-165.428c-0.010-0.138-0.015-0.299-0.015-0.461 0-2.318 1.113-4.376 2.833-5.67l79.66-64.294 2.6-2.363-21.269-17.252-61.681-49.865c-1.182-0.979-1.973-2.393-2.125-3.994q-0.002-116.769-0.002-233.75s0 0 0-1.891c32.897 21.497 61.030 46.85 84.794 75.914 24.549 28.603 44.526 60.948 58.983 96.143l0.855 2.351c0-4.963 0-9.689 1.418-14.652 0.078-2.493 0.122-5.424 0.122-8.366 0-28.339-4.102-55.719-11.744-81.58-10.304-39.060-26.509-75.105-47.635-107.66-28.415-43.864-68.383-79.969-115.578-103.874-31.131-16.362-65.267-29.204-101.128-37.551-22.082-4.782-44.114-7.196-66.711-7.196-9.567 0-19.033 0.433-28.379 1.279-52.050 4.337-101.021 18.69-145.199 41.121-56.892 29.138-105.234 73.011-139.87 126.575-28.489 44.047-47.939 94.535-55.694 148.794-3.082 20.42-4.875 41.926-5.192 63.788-0.048 2.461-0.074 4.944-0.074 7.433 0 87.36 31.083 167.46 82.793 229.845 47.827 61.043 111.882 108.271 185.675 135.304 13.486 4.851 25.727 7.471 38.468 8.239l3.194 0.017-3.545-2.6c-14.18-9.689-28.359-19.379-42.302-29.541-25.12-19.217-46.183-42.236-62.704-68.408-10.685-16.193-19.883-33.535-27.326-51.78l-2.61-7.192 268.703 119.581c0-1.654 0-2.836 0-4.018q0-184.098 0-368.196c0.035-0.222 0.055-0.477 0.055-0.737 0-2.168-1.391-4.012-3.329-4.688l-161.918-80.598-48.683-23.633-4.018-2.127c8.035-8.035 15.125-16.306 23.633-23.633 31.686-28.482 69.88-50.407 112.032-63.254 19.92-5.472 40.366-8.298 61.473-8.298 4.891 0 9.746 0.152 14.562 0.451 37.418 0.61 73.319 9.251 105.654 24.276 5.469 2.632 12.086 6.65 18.939 10.668 1.294 0.924 2.177 2.352 2.361 3.992q0.002 118.189 0.002 238.006c-0.143 1.7-0.934 3.192-2.12 4.248l-80.594 65.468-1.891 1.654 17.252 13.943 64.517 52.228c1.876 1.344 3.084 3.517 3.084 5.973 0 0.144-0.004 0.286-0.012 0.428q0.001 83.167 0.001 165.409v4.254l-15.598 2.363c-33.558 5.199-66.644 13.234-99.493 21.742l-200.168 53.882c-17.488 4.49-34.74 8.98-52.464 12.525-7.105 1.45-15.272 2.28-23.633 2.28s-16.527-0.83-24.422-2.412c-22.526-3.888-41.281-20.050-48.936-41.487-4.173-8.406-6.535-17.798-6.535-27.743s2.362-19.337 6.557-27.648c4.953-7.443 10.321-14.237 16.221-20.526 0.784-0.824 1.437-1.936 1.801-3.17-3.531-0.057-7.075 2.070-10.62 3.488-30.502 12.675-53.689 37.717-63.592 68.697-5.275 15.315-8.197 32.065-8.197 49.498 0 24.051 5.562 46.803 15.469 67.040 15.054 33.474 41.352 60.689 74.068 76.91 21.429 11.591 45.282 19.859 70.551 23.88 8.912 1.22 17.744 1.822 26.717 1.822 13.574 0 26.827-1.377 39.626-4 46.488-9.735 86.566-20.902 125.589-34.337 36.21-11.293 79.694-24.764 123.414-37.762 15.683-5.056 34.183-9.045 53.235-11.218 5.342-0.81 9.932-1.201 14.613-1.201 14.275 0 27.7 3.637 39.4 10.035 13.81 7.379 23.337 22.136 23.337 39.117 0 1.212-0.049 2.412-0.144 3.6-1.595 14.213-8.871 26.625-19.493 34.972-11.059 8.969-24.569 15.115-39.372 17.283-11.786 2.18-24.075 3.834-34.237 5.725h-4.254c12.117 3.22 26.029 5.069 40.373 5.069 20.47 0 40.059-3.766 58.115-10.643 15.487-5.739 29.838-13.23 43.039-22.277 21.222-14.279 37.207-36.34 43.828-62.154 3.168-11.964 4.894-24.847 4.894-38.133 0-16.014-2.509-31.443-7.154-45.914-4.073-18.065-12.288-34.819-23.539-49.066-23.458-27.904-56.114-47.833-93.3-55.105-11.664-2.058-22.298-2.295-32.933-3.476zM275.792 574.553h-1.891l-105.401-47.265c-1.274-0.67-2.264-1.736-2.821-3.032-2.142-5.712-4.269-11.384-6.16-17.292-8.255-25.519-13.906-55.101-15.783-85.703-0.752-8.781-1.152-17.796-1.152-26.905 0-17.233 1.432-34.132 4.184-50.584 9.418-51.284 28.393-98.544 55.059-140.43 4.012-6.202 9.448-13.528 14.883-22.035l2.836 1.418 52.228 25.76c2.395 0.875 4.074 3.134 4.074 5.785 0 0.293-0.021 0.582-0.060 0.864q0.004 176.503 0.004 352.802z" />
<glyph unicode="&#xe948;" glyph-name="icon-top100" horiz-adv-x="1103" d="M336.012 915.571h-145.792v-365.011h-44.429v365.011h-145.792v39.108h336.012zM345.856 752.486c-0.004 0.473-0.006 1.032-0.006 1.592 0 113.872 92.311 206.183 206.183 206.183 3.652 0 7.281-0.095 10.886-0.282 2.195 0.147 5.36 0.218 8.541 0.218 114.46 0 207.248-92.788 207.248-207.248 0-0.163 0-0.326-0.001-0.489 0-120.759-97.106-207.489-218.687-207.489-2.062-0.074-4.485-0.115-6.917-0.115-114.46 0-207.248 92.788-207.248 207.248 0 0.134 0 0.268 0 0.402zM730.554 752.486c-0.116 90.716-73.682 164.211-164.415 164.211-1.59 0-3.175-0.023-4.755-0.067-1.281 0.056-3.060 0.084-4.846 0.084-90.216 0-163.35-73.135-163.35-163.35 0-0.963 0.008-1.924 0.025-2.884 0.142-89.963 73.221-162.954 163.348-162.954 0.748 0 1.496 0.005 2.242 0.015 2.192-0.116 4.893-0.182 7.609-0.182 91.098 0 164.947 73.849 164.947 164.947 0 0.531-0.003 1.062-0.008 1.592zM969.727 954.679c101.362 0 133.022-55.603 133.022-110.94s-31.925-110.94-133.022-110.94h-71.034v-182.506h-44.429v404.386zM898.694 915.571v-143.397h66.511c81.143 0 90.721 42.567 90.721 71.832s-9.578 71.832-90.721 71.832zM278.547-57.083c-13.302 0-98.17 1.33-123.178 1.33s-114.931-1.33-127.967-1.33v13.834l30.063 4.789c42.567 6.917 46.558 19.421 46.558 125.306v192.881c0 89.124-13.302 98.968-53.209 98.968h-20.751v14.632c62.488 7.795 118.744 20.481 172.815 38.015l5.966-9.549v-334.682c0-106.417 6.385-118.921 40.971-125.306l28.467-4.789zM478.878-64c-136.48 0-186.23 114.931-186.23 249.282s53.209 242.631 180.909 242.631c136.48 0 186.23-114.931 186.23-249.282s-54.007-242.631-180.909-242.631zM471.428 401.309c-53.209 0-67.575-69.703-67.575-204.055 0-154.571 13.302-237.31 75.822-237.31 53.209 0 67.575 69.703 67.575 204.055 0 155.635-13.036 237.31-75.822 237.31zM888.584-64c-136.48 0-186.23 114.931-186.23 249.282s53.209 242.365 181.707 242.365c136.48 0 186.23-114.931 186.23-249.282s-53.741-242.365-181.707-242.365zM882.199 401.309c-53.209 0-67.575-69.703-67.575-204.055 0-154.571 13.302-237.31 75.822-237.31 53.209 0 67.575 69.703 67.575 204.055-0.266 155.635-13.302 237.31-75.822 237.31z" />
<glyph unicode="&#xe949;" glyph-name="icon-user-hover" d="M665.327 601.051c0-84.811-68.753-153.564-153.564-153.564s-153.564 68.753-153.564 153.564c0 84.811 68.753 153.564 153.564 153.564s153.564-68.753 153.564-153.564zM556.809 285.392h-90.091c-111.684-0.194-202.17-90.679-202.364-202.345v-83.285c71.35-40.126 156.62-63.762 247.409-63.762s176.060 23.637 249.991 65.092l-2.581 81.936c-0.194 111.684-90.679 202.17-202.345 202.364zM213.165 32.523v50.505c0.194 139.954 113.598 253.358 253.533 253.552h90.109c139.954-0.194 253.358-113.598 253.552-253.533v-50.865c129.953 94.028 213.521 245.223 213.521 415.937 0 282.704-229.177 511.881-511.881 511.881s-511.881-229.177-511.881-511.881c0-170.508 83.368-321.544 211.565-414.572zM512.104 805.804c113.082 0 204.752-91.671 204.752-204.752s-91.671-204.752-204.752-204.752c-113.082 0-204.752 91.671-204.752 204.752s91.671 204.752 204.752 204.752z" />
<glyph unicode="&#xe94a;" glyph-name="icon-valid-hover" d="M512 960c-282.769 0-512-229.229-512-512s229.229-512 512-512c282.769 0 512 229.229 512 512s-229.229 512-512 512zM441.716 261.818l-178.734 178.734 33.048 33.048 146.152-146.152 286.254 286.254 33.048-33.048z" />
<glyph unicode="&#xe94b;" glyph-name="icon-vinyl" d="M512 960c-282.77 0-512-229.23-512-512s229.23-512 512-512c282.77 0 512 229.23 512 512s-229.23 512-512 512zM512 224c-123.712 0-224 100.288-224 224s100.288 224 224 224c123.712 0 224-100.288 224-224s-100.288-224-224-224zM551.68 448c0-21.915-17.765-39.68-39.68-39.68s-39.68 17.765-39.68 39.68c0 21.915 17.765 39.68 39.68 39.68s39.68-17.765 39.68-39.68z" />
<glyph unicode="&#xe94c;" glyph-name="icon-new" horiz-adv-x="3640" d="M892.379-51.574l-544.179 791.418-77.103-477.272c-33.135-209.643-17.205-245.964 87.298-272.090h11.47l-4.46-29.312c-27.4 0-130.628 0-183.517 0s-142.736 0-174.596 0l4.46 29.312h14.656c100.68 20.391 127.442 63.721 165.675 270.815l105.14 552.463c-29.897 51.498-77.056 90.176-133.398 108.488l-13.16 4.935 4.46 30.586c30.586 0 108.963 0 159.94 0s127.442 0 165.675 4.46l449.235-651.868 55.437 346.006c33.135 209.643 19.116 248.513-86.024 272.090h-13.381l5.098 29.312c27.4 0 130.628 0 183.517 0s144.010 0 173.959 0l-4.46-30.586h-13.381c-100.68-21.665-127.442-63.721-166.95-270.815l-130.628-696.473zM1103.296-12.704l49.703 10.195c73.917 15.93 94.307 56.712 130.628 260.62l70.093 398.258c36.321 203.908 31.861 245.964-37.596 260.62l-47.154 10.195 4.46 30.586h787.594v-245.964h-31.861l-37.596 63.721c-36.637 74.961-112.325 125.679-199.859 125.679-8.836 0-17.551-0.517-26.118-1.522l-11.704 0.1c-42.819-0.383-84.473-4.076-125.092-10.836l-62.249-381.687h77.103c168.861 5.735 203.908 35.047 224.299 127.442v13.381h35.047l-33.135-173.322c-10.195-52.251-23.577-151.019-29.312-181.605h-35.047v13.381c10.195 88.572-5.735 127.442-177.782 133.815h-77.103l-43.33-254.885c-26.126-151.019-10.195-179.057 116.61-179.057h19.116c113.424 0 179.057 33.772 279.099 139.549l49.703 52.251h31.861l-84.112-238.317h-819.455zM2368.799-61.77l-146.559 805.436c-20.391 113.424-47.791 164.401-100.68 176.508l-26.126 5.735 4.46 31.861h493.202l-4.46-30.586-31.861-5.735c-63.721-11.47-98.768-39.507-104.503-73.917-0.791-8.049-1.241-17.399-1.241-26.855 0-19.122 1.843-37.815 5.362-55.907l87-514.306 242.778 414.825-23.577 127.442c-14.656 80.926-36.958 118.521-86.661 129.991l-19.116 4.46 4.46 30.586c27.4 0 174.596 0 228.122 0h254.885l-4.46-29.312-26.126-5.735c-81.563-17.205-117.884-36.321-123.619-72.642-2.746-15.135-4.317-32.554-4.317-50.34s1.57-35.205 4.58-52.126l100.417-504.16 241.503 477.272c18.619 33.954 33.749 73.287 43.353 114.738 9.535 35.007-4.483 70.054-78.4 85.984l-26.126 5.735 3.823 30.586c29.312 0 119.159 0 171.41 0s155.48 0 184.792 0l-3.823-30.586h-11.47c-90.484-21.665-127.442-63.721-196.261-200.722l-407.816-772.301-72.642-15.93-127.442 637.212-361.937-622.556z" />
<glyph unicode="&#xe94d;" glyph-name="icon-books" d="M295.116 669.337v-442.876c-0.004-0.268-0.006-0.584-0.006-0.901 0-38.964 30.583-70.786 69.053-72.77l347.718-0.007c6.981 0.221 12.556 5.934 12.556 12.948 0 0.145-0.002 0.288-0.007 0.432 0.002 0.048 0.002 0.128 0.002 0.209 0 4.701-2.392 8.843-6.025 11.276-1.886 0.962-4.038 1.791-6.281 2.403-12.216 4.233-22.317 11.204-30.13 20.212-5.055 6.737-8.050 15.126-8.050 24.215 0 0.911 0.030 1.815 0.089 2.711-0.067 0.689-0.101 1.635-0.101 2.589 0 8.919 3.004 17.136 8.056 23.694 8.962 9.401 20.472 16.454 33.425 20.029 5.64 2.187 9.196 7.112 9.217 12.87v456.643h-360.293c-38.668-2.099-69.228-33.965-69.228-72.969 0-0.249 0.001-0.498 0.004-0.746zM364.341 717.106h266.981l-310.904-132.175v84.406c0.592 24.833 19.5 45.071 43.702 47.749zM662.493 182.537c0-1.214 2.429-1.822 3.441-2.834h-301.593c-25.935 0-46.959 21.024-46.959 46.959s21.024 46.959 46.959 46.959h301.593c-1.012-1.214-2.631-2.024-3.643-3.239-8.646-12.246-13.819-27.48-13.819-43.923s5.173-31.678 13.981-44.165zM431.339 300.341l267.993 113.148v-113.148zM699.332 435.552l-320.013-135.211h-14.978c-17.074-0.243-32.549-6.894-44.169-17.65l0.044 280.38 363.126 154.035h15.991zM424.811 418.822l190.561 80.496 7.876-18.646-190.561-80.496-7.876 18.646zM410.577 474.221l190.575 80.463 7.873-18.647-190.575-80.463-7.873 18.647zM442.871 547.813l82.999 34.992 7.863-18.651-82.999-34.992-7.863 18.651zM29.35 542.83l-20.241 3.846c-5.796-29.033-9.113-62.411-9.113-96.564 0-0.778 0.002-1.556 0.005-2.333v-0.892l20.241 1.012c0 0.095 0 0.208 0 0.321 0 33.47 3.316 66.166 9.637 97.776zM9.918 347.098c7.473-36.45 17.599-68.416 30.61-98.855l17.361 11.009c-11.292 26.155-21.003 56.977-27.591 88.94zM228.118 21.822c25.403-17.191 54.487-32.992 85.090-45.902l11.055 17.362c-32.645 13.627-60.598 28.817-86.766 46.454zM86.632 162.701c19.609-28.931 40.586-54.214 63.748-77.309l14.383 14.359c-22.059 22.181-42.043 46.471-59.607 72.528zM237.631 856.163l-11.335 16.8c-28.928-19.656-54.213-40.699-77.294-63.934l14.344-14.399c22.205 22.379 46.497 42.622 72.581 60.434zM607.235 930.65l3.846 20.241c-29.029 5.797-62.402 9.114-96.55 9.114-0.854 0-1.708-0.002-2.561-0.006l-1.488 0.001 1.619-20.241c0.166 0 0.364 0 0.561 0 33.456 0 66.138-3.316 97.735-9.637zM102.42 720.142l-16.8 11.133c-17.201-25.405-33.002-54.49-45.906-85.097l17.366-11.049c13.612 32.641 28.802 60.595 46.448 86.756zM414.539 930.043l-4.048 20.241c-36.596-7.456-68.702-17.585-99.278-30.612l11.228-17.359c26.162 11.169 56.999 20.748 88.968 27.203zM785.559 39.23l11.335-16.8c29.019 19.591 54.37 40.571 77.517 63.753l-14.365 14.377c-22.251-22.302-46.609-42.483-72.757-60.223zM984.327 645.857l-18.622-7.894c11.366-26.16 21.144-56.975 27.788-88.938l20.79 0.889c-7.657 36.612-17.985 68.698-31.226 99.228zM921.175 174.846l16.8-11.335c17.253 25.301 33.115 54.247 46.1 84.712l-17.358 11.028c-13.724-32.405-28.972-60.15-46.64-86.115zM1003.759 450.125v-2.227c-0.035-33.679-3.423-66.547-9.848-98.313l20.778-0.667c6.179 29.95 9.716 64.37 9.716 99.616 0 0.061 0 0.121 0 0.182v2.217zM706.416 921.744l-7.692-18.622c32.672-13.297 60.64-28.164 86.855-45.471l9.291 17.943c-25.362 16.832-54.461 32.31-85.050 44.908zM608.449-34.448l4.048-20.241c36.602 7.523 68.702 17.719 99.262 30.817l-11.010 17.357c-26.228-11.254-57.128-20.901-89.171-27.403zM416.563-34.65l-3.846-20.241c29.87-6.158 64.207-9.694 99.367-9.716h0.017v20.241c-33.899 0.154-66.883 3.684-98.748 10.27zM872.799 811.43l-14.371-14.371c22.050-22.184 42.033-46.473 59.604-72.524l17.919 9.574c-19.428 28.953-40.211 54.237-63.179 77.348z" />
<glyph unicode="&#xe94e;" glyph-name="icon-location-circle" d="M512 960c-283.927 0-512-228.073-512-512s228.073-512 512-512c283.927 0 512 228.073 512 512s-228.073 512-512 512zM512-17.455c-256 0-465.455 209.455-465.455 465.455s209.455 465.455 465.455 465.455c256 0 465.455-209.455 465.455-465.455s-209.455-465.455-465.455-465.455zM572.509 522.473c0-33.418-27.091-60.509-60.509-60.509s-60.509 27.091-60.509 60.509c0 33.418 27.091 60.509 60.509 60.509s60.509-27.091 60.509-60.509zM512 98.909c0 0 0 0 0 0s0 0 0 0v0zM684.218 690.036c-46.545 46.545-107.055 74.473-172.218 74.473s-125.673-27.927-172.218-74.473c-51.2-55.855-69.818-139.636-55.855-214.109 9.309-46.545 37.236-88.436 60.509-121.018 4.655-9.309 158.255-242.036 167.564-256 4.655 9.309 162.909 246.691 167.564 256 23.273 37.236 51.2 79.127 60.509 121.018 13.964 74.473-4.655 158.255-55.855 214.109zM698.182 485.236c-9.309-37.236-32.582-74.473-55.855-107.055-4.655-4.655-79.127-121.018-130.327-195.491 0 0 0 0 0 0v0c0 0 0 0 0 0-51.2 74.473-125.673 190.836-130.327 195.491-23.273 32.582-46.545 69.818-55.855 107.055-9.309 60.509 4.655 125.673 46.545 172.218 37.236 37.236 83.782 60.509 139.636 60.509s102.4-23.273 139.636-60.509c41.891-46.545 55.855-111.709 46.545-172.218z" />
<glyph unicode="&#xe94f;" glyph-name="icon-gift-circle" d="M646.982 624.873c9.309 4.655 23.273 9.309 27.927 13.964 13.964 13.964 27.927 32.582 27.927 51.2s-4.655 41.891-18.618 55.855c-27.927 32.582-74.473 37.236-107.055 13.964-9.309-4.655-13.964-13.964-18.618-27.927l-46.545-93.091-51.2 97.745c-4.655 9.309-9.309 18.618-18.618 23.273-32.582 27.927-83.782 23.273-107.055-9.309-27.927-32.582-23.273-83.782 9.309-107.055 9.309-9.309 18.618-13.964 32.582-18.618l23.273-4.655h-153.6v-139.636h27.927v-307.2h479.418v307.2h27.927v139.636h-153.6l18.618 4.655zM586.473 722.618c4.655 4.655 9.309 13.964 13.964 18.618 9.309 9.309 18.618 9.309 32.582 9.309s27.927-4.655 37.236-18.618c9.309-9.309 13.964-23.273 9.309-37.236 0-13.964-9.309-23.273-18.618-32.582-4.655-4.655-13.964-9.309-18.618-9.309l-102.4-27.927 46.545 97.745zM381.673 652.8c-9.309 4.655-13.964 4.655-18.618 9.309-23.273 18.618-23.273 51.2-9.309 69.818 9.309 9.309 18.618 18.618 32.582 18.618 0 0 4.655 0 4.655 0 9.309 0 23.273-4.655 32.582-9.309 4.655-4.655 9.309-9.309 13.964-18.618l46.545-97.745-102.4 27.927zM721.455 201.309h-418.909v279.273h423.564v-279.273zM749.382 592.291v-83.782h-474.764v83.782h474.764zM512 960c-283.927 0-512-228.073-512-512s228.073-512 512-512c283.927 0 512 228.073 512 512s-228.073 512-512 512zM512-17.455c-256 0-465.455 209.455-465.455 465.455s209.455 465.455 465.455 465.455c256 0 465.455-209.455 465.455-465.455s-209.455-465.455-465.455-465.455z" />
<glyph unicode="&#xe950;" glyph-name="icon-download-circle" d="M512 960c-282.77 0-512-229.23-512-512s229.23-512 512-512c282.77 0 512 229.23 512 512s-229.23 512-512 512zM512-17.455c-257.063 0-465.455 208.391-465.455 465.455s208.391 465.455 465.455 465.455c257.063 0 465.455-208.391 465.455-465.455s-208.391-465.455-465.455-465.455zM751.244 433.105l-215.971-215.971v487.331h-46.545v-487.331l-218.298 218.298-32.582-33.047 250.88-252.276h46.545l249.018 250.415-33.047 32.582z" />
<glyph unicode="&#xe951;" glyph-name="icon-location-circle-hover" d="M512 717.964c-55.855 0-102.4-23.273-139.636-60.509-41.891-46.545-55.855-111.709-46.545-172.218 9.309-37.236 32.582-74.473 55.855-107.055 4.655-4.655 79.127-121.018 130.327-195.491 51.2 74.473 125.673 190.836 130.327 195.491 23.273 32.582 46.545 69.818 55.855 107.055 9.309 60.509-4.655 125.673-46.545 172.218-37.236 37.236-83.782 60.509-139.636 60.509zM512 461.964c-32.582 0-60.509 27.927-60.509 60.509s27.927 60.509 60.509 60.509 60.509-27.927 60.509-60.509c0-32.582-27.927-60.509-60.509-60.509zM512 960c-283.927 0-512-228.073-512-512s228.073-512 512-512 512 228.073 512 512-228.073 512-512 512zM740.073 475.927c-9.309-41.891-37.236-83.782-60.509-121.018-4.655-9.309-162.909-246.691-167.564-256-9.309 13.964-162.909 246.691-167.564 256-23.273 32.582-51.2 74.473-60.509 121.018-13.964 74.473 4.655 158.255 55.855 214.109 46.545 46.545 107.055 74.473 172.218 74.473s125.673-27.927 172.218-74.473c51.2-55.855 69.818-139.636 55.855-214.109z" />
<glyph unicode="&#xe952;" glyph-name="icon-download-circle-hover" d="M512 960c-283.927 0-512-228.073-512-512s228.073-512 512-512 512 228.073 512 512-228.073 512-512 512zM535.273 150.109h-46.545l-251.345 251.345 32.582 32.582 218.764-218.764v488.727h46.545v-488.727l214.109 214.109 32.582-32.582-246.691-246.691z" />
<glyph unicode="&#xe953;" glyph-name="icon-bubble-active" horiz-adv-x="887" d="M745.7 907.3v0h-603.8c-73.9-0.3-133.7-60.1-133.9-133.8v-374.9c0-74.2 60.1-134.3 134.3-134.3h52.7v-275.5l194 275.5h355.7c74.2 0 134.3 60.1 134.3 134.3v374.8c-0.2 73.7-59.8 133.4-133.3 133.9zM443.9 444.7h-217.9v43.6h218v-43.6zM661.9 564.6h-435.9v43.6h435.9v-43.6zM661.9 684.5h-435.9v43.6h435.9v-43.6z" />
<glyph unicode="&#xe954;" glyph-name="envelope" horiz-adv-x="1342" d="M1341.793 960h-1341.793v-1024h1341.793v1024zM674.428 437.407l-487.283 416.662h974.566l-487.283-416.662zM105.931 41.931v741.517l564.966-494.345 564.966 487.283v-734.455h-1129.931z" />
<glyph unicode="&#xe955;" glyph-name="icon-collection-default" d="M512 960c-281.6 0-512-230.4-512-512s230.4-512 512-512 512 230.4 512 512-230.4 512-512 512zM512-33.28c-266.24 0-481.28 215.040-481.28 481.28s215.040 481.28 481.28 481.28 481.28-215.040 481.28-481.28-215.040-481.28-481.28-481.28zM640 675.84c-51.2 0-94.72-23.040-128-56.32-30.72 35.84-76.8 56.32-128 56.32-92.16 0-168.96-76.8-168.96-168.96 0-143.36 235.52-294.4 296.96-330.24 61.44 35.84 296.96 184.32 296.96 330.24 0 94.72-74.24 168.96-168.96 168.96zM512 212.48c-125.44 76.8-266.24 197.12-266.24 294.4 0 76.8 61.44 138.24 138.24 138.24 38.4 0 76.8-17.92 104.96-46.080l23.040-25.6 23.040 25.6c28.16 30.72 66.56 46.080 104.96 46.080 76.8 0 138.24-61.44 138.24-138.24 0-97.28-138.24-217.6-266.24-294.4z" />
<glyph unicode="&#xe956;" glyph-name="close-cart-slide" horiz-adv-x="540" d="M531.911 467.911l-483.556 483.556c-11.378 11.378-28.444 11.378-39.822 0s-11.378-28.444 0-39.822l463.644-463.644-463.644-463.644c-11.378-11.378-11.378-28.444 0-39.822s28.444-11.378 39.822 0l483.556 483.556c11.378 11.378 11.378 28.444 0 39.822z" />
<glyph unicode="&#xe957;" glyph-name="textbook-buyback" d="M998.883 604.498h-83.079c-28.981 67.623-75.351 127.517-135.245 171.955-17.389 42.506 0 92.74 42.506 112.060 7.728 3.864 11.592 15.457 7.728 23.185-1.932 3.864-5.796 5.796-7.728 7.728-73.419 28.981-156.498 3.864-206.732-57.962-46.37 13.525-94.672 19.321-142.974 17.389-262.762-1.932-473.358-189.343-473.358-421.192 1.932-121.721 57.962-233.781 154.566-309.132v-168.091c0-9.66 7.728-17.389 15.457-17.389h241.509c9.66 0 15.457 7.728 15.457 17.389v57.962c28.981-3.864 59.894-3.864 88.875 0v-57.962c0-9.66 7.728-17.389 15.457-17.389h241.509c9.66 0 15.457 7.728 15.457 17.389v168.091c59.894 46.37 104.332 110.128 131.381 179.683h77.283c9.66 0 15.457 7.728 15.457 17.389v241.509c3.864 9.66-3.864 17.389-13.525 17.389zM977.63 362.989h-71.487c-7.728 0-13.525-3.864-15.457-11.592-25.117-71.487-69.555-133.313-127.517-179.683-3.864-3.864-5.796-7.728-5.796-13.525v-154.566h-208.664v57.962c0 9.66-7.728 15.457-15.457 15.457h-1.932c-38.642-5.796-77.283-5.796-115.925 0-9.66 1.932-17.389-5.796-17.389-13.525v-59.894h-208.664v156.498c0 5.796-1.932 9.66-5.796 13.525-90.808 67.623-142.974 173.887-144.906 285.947 0 210.596 195.14 382.551 434.717 382.551 48.302 1.932 96.604-3.864 142.974-19.321 7.728-1.932 15.457 0 19.321 5.796 30.913 46.37 85.011 69.555 141.042 61.826-36.709-34.777-46.37-90.808-23.185-137.177 0-1.932 0-3.864 3.864-3.864 57.962-42.506 102.4-102.4 129.449-170.023 1.932-5.796 7.728-9.66 15.457-9.66h77.283l-1.932-206.732zM510.068 478.913c-38.642 15.457-56.030 25.117-56.030 38.642s9.66 25.117 38.642 25.117c23.185 0 46.37-5.796 65.691-15.457l13.525 52.166c-21.253 9.66-44.438 15.457-67.623 15.457v40.574h-44.438v-42.506c-48.302-9.66-77.283-40.574-77.283-81.147 0-44.438 32.845-67.623 83.079-85.011 34.777-11.592 48.302-23.185 48.302-40.574s-17.389-28.981-44.438-28.981-52.166 5.796-77.283 19.321l-13.525-54.098c23.185-11.592 50.234-19.321 77.283-19.321v-44.438h44.438v46.37c52.166 9.66 81.147 44.438 81.147 85.011s-17.389 69.555-71.487 88.875z" />
<glyph unicode="&#xe958;" glyph-name="calendar" horiz-adv-x="931" d="M698.182 866.909v93.091h-46.545v-93.091h-372.364v93.091h-46.545v-93.091h-232.727v-930.909h930.909v930.909zM884.364-17.455h-837.818v605.091h837.818zM46.545 634.182v186.182h186.182v-93.091h46.545v93.091h372.364v-93.091h46.545v93.091h186.182v-186.182z" />
<glyph unicode="&#xe959;" glyph-name="textbook-calendar" d="M938.667 960h-853.333c-47.787 0-85.333-37.547-85.333-85.333v-853.333c0-47.787 37.547-85.333 85.333-85.333h853.333c47.787 0 85.333 37.547 85.333 85.333v853.333c0 47.787-37.547 85.333-85.333 85.333zM989.867 21.333c0-29.013-22.187-51.2-51.2-51.2h-853.333c-29.013 0-51.2 22.187-51.2 51.2v682.667h955.733v-682.667zM989.867 738.133h-955.733v136.533c0 29.013 22.187 51.2 51.2 51.2h853.333c29.013 0 51.2-22.187 51.2-51.2v-136.533zM312.32 569.173h68.267v-471.040h-68.267v471.040zM628.053 98.133h64.853v155.307h52.907v58.027h-52.907v262.827h-27.307l-237.227-293.547v-29.013h199.68v-153.6zM518.827 309.76l109.227 136.533v-136.533h-109.227z" />
<glyph unicode="&#xe95a;" glyph-name="bookgraph-arrow-left" d="M624.64 656.058l-208.058-208.058 208.058-208.058-49.338-49.338-257.396 257.396 257.396 257.396 49.338-49.338zM0 448c0-282.77 229.23-512 512-512s512 229.23 512 512c0 282.77-229.23 512-512 512s-512-229.23-512-512zM46.545 448c0 257.063 208.391 465.455 465.455 465.455s465.455-208.391 465.455-465.455c0-257.063-208.391-465.455-465.455-465.455s-465.455 208.391-465.455 465.455z" />
<glyph unicode="&#xe95b;" glyph-name="textbook-delivery" d="M817.464 661.478v98.929h-817.464v-518.942h100.664l1.736-10.414c12.149-60.746 71.159-98.929 130.169-86.78 43.39 8.678 78.102 43.39 86.78 86.78l1.736 10.414h373.153l1.736-10.414c12.149-60.746 71.159-98.929 130.169-86.78 43.39 8.678 78.102 43.39 86.78 86.78l1.736 10.414h98.929v420.014h-196.122zM210.007 165.098c-48.597 0-86.78 38.183-86.78 86.78s38.183 86.78 86.78 86.78 86.78-38.183 86.78-86.78c0-46.861-38.183-86.78-86.78-86.78v0zM694.237 264.027h-373.153l-1.736 10.414c-12.149 60.746-71.159 98.929-130.169 86.78-43.39-8.678-78.102-43.39-86.78-86.78l-1.736-10.414h-76.366v472.081h770.603v-373.153l-10.414-1.736c-43.39-8.678-78.102-43.39-86.78-86.78l-3.471-10.414zM805.315 165.098c-48.597 0-86.78 38.183-86.78 86.78s38.183 86.78 86.78 86.78 86.78-38.183 86.78-86.78c0-46.861-38.183-86.78-86.78-86.78v0zM991.024 264.027h-76.366l-1.736 10.414c-8.678 43.39-43.39 78.102-86.78 86.78l-10.414 1.736v124.963h173.559l1.736-223.892zM991.024 512.217h-173.559v124.963h173.559v-124.963zM144.054 413.288h29.505v85.044h55.539v29.505h-55.539v55.539h55.539v29.505h-85.044zM449.519 413.288h85.044v29.505h-57.275v55.539h57.275v29.505h-57.275v55.539h57.275v29.505h-85.044zM586.631 413.288h86.78v29.505h-57.275v55.539h57.275v29.505h-57.275v55.539h57.275v29.505h-86.78zM395.715 555.607c0 31.241-26.034 57.275-57.275 57.275h-57.275v-199.593h27.769v85.044h20.827l36.447-85.044h32.976l-38.183 90.251c20.827 8.678 34.712 27.769 34.712 52.068zM310.671 526.102v57.275h27.769c15.62 0 27.769-12.149 27.769-27.769s-12.149-27.769-27.769-27.769l-27.769-1.736z" />
<glyph unicode="&#xe95c;" glyph-name="bookgraph-arrow-left-hover" d="M0 448c0-282.77 229.23-512 512-512s512 229.23 512 512c0 282.77-229.23 512-512 512s-512-229.23-512-512zM317.905 448l257.396 257.396 49.338-49.338-208.058-208.058 208.058-208.058-49.338-49.338z" />
<glyph unicode="&#xe95d;" glyph-name="textbook-new" d="M1011.712 411.136c-12.288 22.528-12.288 51.2 0 73.728l6.144 10.24c10.24 22.528 6.144 47.104-10.24 65.536l-8.192 8.192c-18.432 18.432-26.624 45.056-22.528 69.632l2.048 10.24c4.096 24.576-8.192 47.104-30.72 59.392l-10.24 4.096c-22.528 12.288-38.912 34.816-43.008 59.392l-2.048 10.24c-4.096 24.576-22.528 43.008-47.104 47.104l-10.24 2.048c-24.576 4.096-47.104 20.48-59.392 43.008l-4.096 10.24c-10.24 18.432-28.672 30.72-49.152 30.72-2.048 0-6.144 0-8.192 0l-10.24-2.048c-4.096 0-8.192-2.048-12.288 0-22.528 0-43.008 8.192-57.344 24.576l-8.192 8.192c-10.24 10.24-24.576 16.384-40.96 16.384-8.192 0-16.384-2.048-24.576-6.144l-10.24-6.144c-22.528-12.288-51.2-12.288-73.728 0l-10.24 6.144c-8.192 4.096-16.384 6.144-24.576 6.144-16.384 0-30.72-6.144-40.96-16.384l-8.192-8.192c-16.384-14.336-36.864-24.576-57.344-24.576-4.096 0-8.192 0-12.288 0l-10.24 2.048c-2.048 0-6.144 0-8.192 0-20.48 0-40.96-12.288-49.152-30.72l-4.096-10.24c-12.288-22.528-34.816-38.912-59.392-43.008l-16.384-2.048c-24.576-2.048-43.008-22.528-47.104-45.056v-12.288c-4.096-24.576-20.48-47.104-43.008-59.392l-10.24-4.096c-22.528-12.288-34.816-34.816-30.72-59.392l2.048-10.24c4.096-24.576-4.096-51.2-22.528-69.632l-8.192-8.192c-16.384-16.384-22.528-43.008-10.24-65.536l6.144-10.24c12.288-22.528 12.288-51.2 0-73.728l-6.144-10.24c-10.24-22.528-6.144-49.152 10.24-65.536l8.192-8.192c18.432-18.432 26.624-45.056 22.528-69.632l-2.048-10.24c-4.096-24.576 8.192-47.104 30.72-59.392l10.24-4.096c22.528-12.288 38.912-34.816 43.008-59.392l2.048-10.24c4.096-24.576 22.528-43.008 47.104-47.104l10.24-2.048c24.576-4.096 47.104-20.48 59.392-43.008l4.096-10.24c10.24-18.432 28.672-30.72 49.152-30.72 2.048 0 6.144 0 8.192 0l10.24 2.048c4.096 0 8.192 2.048 12.288 0 22.528 0 43.008-8.192 57.344-24.576l8.192-8.192c10.24-10.24 24.576-16.384 40.96-16.384 8.192 0 16.384 2.048 24.576 6.144l10.24 6.144c22.528 12.288 51.2 12.288 73.728 0l10.24-6.144c8.192-4.096 16.384-6.144 24.576-6.144 16.384 0 30.72 6.144 40.96 16.384l8.192 8.192c16.384 14.336 36.864 24.576 57.344 24.576 4.096 0 8.192 0 12.288 0l10.24-2.048c2.048 0 6.144 0 8.192 0 20.48 0 40.96 12.288 49.152 30.72l4.096 10.24c12.288 22.528 34.816 38.912 59.392 43.008l10.24 2.048c24.576 4.096 43.008 22.528 47.104 47.104l2.048 10.24c4.096 24.576 20.48 47.104 43.008 59.392l10.24 4.096c22.528 10.24 34.816 34.816 30.72 59.392l-2.048 10.24c-4.096 24.576 4.096 51.2 22.528 69.632l8.192 8.192c16.384 16.384 20.48 43.008 10.24 65.536l-2.048 10.24zM978.944 366.080l-8.192-8.192c-28.672-28.672-40.96-67.584-34.816-108.544l2.048-10.24c0-6.144-2.048-10.24-6.144-14.336l-10.24-4.096c-36.864-18.432-61.44-51.2-67.584-92.16l-2.048-10.24c-2.048-6.144-6.144-10.24-10.24-10.24l-10.24-2.048c-40.96-6.144-73.728-30.72-92.16-67.584l-4.096-10.24c-2.048-4.096-8.192-6.144-12.288-8.192v0l-10.24 2.048c-6.144 2.048-14.336 2.048-20.48 2.048-32.768 0-65.536-14.336-88.064-36.864l-8.192-8.192c-2.048-2.048-6.144-4.096-10.24-4.096-2.048 0-4.096 0-4.096 0l-10.24 6.144c-34.816 18.432-77.824 18.432-112.64 0l-14.336-4.096c-2.048 0-4.096 0-4.096 0-4.096 0-8.192 2.048-10.24 4.096l-8.192 8.192c-22.528 22.528-55.296 36.864-88.064 36.864-6.144 0-14.336 0-20.48-2.048l-10.24-2.048c-4.096 0-10.24 2.048-12.288 6.144l-8.192 10.24c-18.432 36.864-51.2 61.44-92.16 67.584l-10.24 2.048c-6.144 2.048-10.24 6.144-10.24 10.24l-2.048 10.24c-6.144 40.96-30.72 73.728-65.536 92.16l-10.24 4.096c-4.096 4.096-6.144 8.192-6.144 14.336l2.048 10.24c6.144 38.912-6.144 79.872-34.816 108.544l-10.24 8.192c-4.096 4.096-4.096 10.24-2.048 14.336l6.144 10.24c18.432 34.816 18.432 77.824 0 112.64l-6.144 10.24c-2.048 6.144 0 10.24 2.048 14.336l8.192 8.192c28.672 28.672 40.96 67.584 34.816 108.544l-2.048 10.24c0 6.144 2.048 10.24 6.144 14.336l12.288 6.144c36.864 18.432 61.44 51.2 67.584 92.16l2.048 10.24c2.048 6.144 6.144 10.24 10.24 10.24l10.24 2.048c38.912 6.144 73.728 30.72 90.112 67.584l4.096 10.24c2.048 4.096 8.192 6.144 12.288 6.144v0l10.24-2.048c6.144-2.048 14.336-2.048 20.48-2.048 32.768 0 65.536 14.336 88.064 36.864l12.288 8.192c2.048 2.048 6.144 4.096 10.24 4.096 2.048 0 4.096 0 4.096 0l10.24-6.144c34.816-18.432 77.824-18.432 112.64 0l10.24 6.144c2.048 0 4.096 0 4.096 0 4.096 0 8.192 0 10.24-4.096l8.192-8.192c22.528-22.528 55.296-36.864 88.064-36.864 6.144 0 14.336 0 20.48 2.048l10.24 2.048c4.096 0 10.24-2.048 12.288-6.144l8.192-10.24c18.432-36.864 51.2-61.44 92.16-67.584l10.24-2.048c6.144-2.048 10.24-6.144 10.24-10.24l2.048-10.24c6.144-38.912 30.72-73.728 67.584-92.16l10.24-4.096c4.096-4.096 6.144-8.192 6.144-14.336l-2.048-10.24c-6.144-38.912 6.144-79.872 34.816-108.544l8.192-8.192c4.096-4.096 4.096-10.24 2.048-14.336l-6.144-10.24c-18.432-34.816-18.432-77.824 0-112.64l6.144-10.24c2.048-6.144 2.048-12.288-2.048-16.384v0zM452.608 536.064l8.192 2.048 2.048 14.336h-90.112l-2.048-14.336 10.24-2.048c8.192-2.048 12.288-2.048 14.336-6.144s4.096-16.384 0-36.864l-16.384-100.352-104.448 157.696-2.048 2.048h-2.048c-8.192 0-18.432 0-28.672 0s-24.576 0-30.72 0h-4.096l-2.048-12.288 10.24-2.048c10.24-2.048 20.48-8.192 26.624-18.432l-24.576-139.264c-6.144-38.912-14.336-43.008-32.768-47.104l-8.192-2.048-2.048-14.336h90.112l2.048 14.336-12.288 2.048c-8.192 2.048-12.288 4.096-14.336 6.144s-4.096 16.384 0 36.864l20.48 116.736 120.832-180.224 12.288 2.048 32.768 174.080c4.096 40.96 10.24 45.056 26.624 47.104zM526.336 486.912c-53.248-4.096-94.208-49.152-94.208-102.4-4.096-34.816 22.528-67.584 57.344-71.68 4.096 0 8.192 0 12.288 0 26.624 0 51.2 12.288 67.584 30.72l4.096 4.096-10.24 10.24-4.096-2.048c-10.24-8.192-22.528-12.288-34.816-12.288-22.528 0-43.008 16.384-43.008 40.96 0 2.048 0 4.096 0 4.096 69.632 4.096 104.448 22.528 104.448 55.296-2.048 28.672-22.528 43.008-59.392 43.008zM534.528 445.952c0-16.384-4.096-32.768-53.248-38.912 4.096 34.816 24.576 61.44 40.96 61.44 4.096 0 6.144-2.048 8.192-4.096 4.096-4.096 6.144-12.288 4.096-18.432v0zM821.248 486.912c-12.288 2.048-24.576-8.192-26.624-20.48 2.048-14.336 10.24-26.624 20.48-36.864-8.192-24.576-22.528-45.056-38.912-65.536l-20.48 114.688-6.144 8.192-22.528-4.096v-4.096c-2.048-40.96-16.384-77.824-38.912-110.592l-18.432 112.64v2.048l-6.144 8.192-59.392-12.288-2.048-12.288 10.24-4.096c10.24-2.048 14.336-4.096 18.432-22.528l20.48-124.928h10.24l2.048 2.048c24.576 24.576 47.104 51.2 63.488 81.92l16.384-83.968h10.24l2.048 2.048c45.056 38.912 94.208 104.448 94.208 141.312-6.144 18.432-14.336 28.672-28.672 28.672z" />
<glyph unicode="&#xe95e;" glyph-name="bookgraph-arrow-right" d="M399.36 656.058l208.058-208.058-208.058-208.058 49.338-49.338 257.396 257.396-257.396 257.396-49.338-49.338zM512 960c-282.77 0-512-229.23-512-512s229.23-512 512-512c282.77 0 512 229.23 512 512s-229.23 512-512 512zM512-17.455c-257.063 0-465.455 208.391-465.455 465.455s208.391 465.455 465.455 465.455c257.063 0 465.455-208.391 465.455-465.455s-208.391-465.455-465.455-465.455z" />
<glyph unicode="&#xe95f;" glyph-name="textbook-rental" d="M966.656 9.728l-133.12 755.712c-4.096 22.528-26.624 38.912-49.152 34.816v0l-135.168-24.576h-2.048v141.312c0 22.528-18.432 43.008-43.008 43.008v0h-137.216c-22.528 0-43.008-18.432-43.008-43.008v0-129.024c-2.048 0-6.144 0-8.192 0h-137.216c-2.048 0-6.144 0-8.192 0v45.056c0 22.528-18.432 43.008-43.008 43.008v0h-133.12c-24.576-2.048-43.008-20.48-43.008-43.008v0-854.016c0-22.528 18.432-43.008 43.008-43.008v0h137.216c14.336 12.288 36.864 12.288 51.2 0h137.216c14.336 12.288 36.864 12.288 51.2 0h137.216c22.528 0 43.008 18.432 43.008 43.008v0 561.152l100.352-569.344c4.096-22.528 26.624-38.912 49.152-34.816v0l135.168 24.576c20.48 4.096 34.816 26.624 30.72 49.152zM231.424-20.992c0-2.048 0-2.048 0 0v0l-137.216-2.048c-2.048 0-2.048 0-2.048 2.048v0 854.016c0 0 0 2.048 2.048 2.048v0h137.216c0 0 2.048 0 2.048-2.048v0l-2.048-854.016zM419.84-20.992c0-2.048 0-2.048 0 0v0l-139.264-2.048c0 0-2.048 0-2.048 2.048v0 768c0 0 0 2.048 2.048 2.048v0h137.216c0 0 2.048 0 2.048-2.048v0-768zM606.208-20.992c0-2.048 0-2.048 0 0v0l-137.216-2.048c0 0-2.048 0-2.048 2.048v0 937.984c0 0 0 2.048 2.048 2.048v0h137.216c0 0 2.048 0 2.048-2.048v0l-2.048-937.984zM925.696 1.536l-135.168-24.576c0 0-2.048 0-2.048 2.048l-133.12 755.712c0 0 0 2.048 2.048 2.048v0l135.168 24.576c0 0 2.048 0 2.048-2.048l131.072-757.76c2.048 0 0 0 0 0v0 0z" />
<glyph unicode="&#xe960;" glyph-name="bookgraph-arrow-right-hover" d="M512 960c-282.77 0-512-229.23-512-512s229.23-512 512-512c282.77 0 512 229.23 512 512s-229.23 512-512 512zM448.698 190.604l-49.338 49.338 208.058 208.058-208.058 208.058 49.338 49.338 257.396-257.396z" />
<glyph unicode="&#xe961;" glyph-name="textbook-used" d="M940.373 576c0-19.794-16.046-35.84-35.84-35.84s-35.84 16.046-35.84 35.84c0 19.794 16.046 35.84 35.84 35.84s35.84-16.046 35.84-35.84zM981.333 657.92l-221.867 128c-18.773 11.947-42.667 15.36-64.853 8.533l-633.173-170.667c-44.373-11.947-69.973-56.32-58.027-98.987 0 0 0 0 0 0l95.573-358.4c11.947-44.373 56.32-69.973 100.693-58.027 0 0 0 0 0 0l633.173 170.667c22.187 6.827 39.253 20.48 51.2 39.253l128 221.867c23.893 42.667 10.24 93.867-30.72 117.76zM983.040 558.933l-128-221.867c-6.827-11.947-18.773-20.48-30.72-23.893l-633.173-170.667c-25.6-6.827-51.2 8.533-58.027 34.133 0 0 0 0 0 0l-97.28 356.693c-6.827 25.6 8.533 51.2 34.133 58.027 0 0 0 0 0 0l633.173 172.373c13.653 3.413 27.307 1.707 39.253-5.12l221.867-128c25.6-15.36 32.427-46.080 18.773-71.68 0 1.707 0 1.707 0 0v0z" />
<glyph unicode="&#xe962;" glyph-name="icon-print" d="M892.527 693.849h-97.814v180.669c0 27.915-23.463 50.666-52.269 50.666h-471.396c-28.761 0-52.224-22.751-52.224-50.666v-180.669h-97.814c-44.744 0-81.252-35.395-81.252-78.803v-345.4c0-43.409 36.463-78.803 81.252-78.803h97.77v-151.775c0-27.915 23.463-50.666 52.224-50.666h471.396c28.761 0 52.269 22.751 52.269 50.666v152.042h97.814c44.967 0 81.208 35.172 81.208 78.581v345.4c0.045 43.409-36.419 78.759-81.163 78.759zM257.87 874.518c0 7.034 5.921 12.778 13.178 12.778h471.396c7.302 0 13.223-5.743 13.223-12.778v-180.669h-497.798v180.669zM742.667 26.335h-471.619c-7.302 0-13.178 5.699-13.178 12.778v384.267h497.798v-384.267h0.223c0-7.079-5.921-12.778-13.223-12.778zM934.689 269.69c0-22.573-18.966-40.915-42.162-40.915h-97.814v213.526c0 10.507-8.637 18.922-19.501 18.922h-536.888c-10.863 0-19.501-8.37-19.501-18.922v-213.526h-97.814c-23.24 0-42.207 18.343-42.207 40.915v345.4c0 22.573 18.922 40.915 42.207 40.915h771.517c23.196 0 42.162-18.343 42.162-40.915v-345.4zM843.999 601.11c-10.73 0-21.059-4.408-28.895-11.62-7.435-7.613-11.976-17.631-11.976-28.049 0-10.374 4.541-20.435 11.976-28.049 7.88-7.168 18.165-11.62 28.895-11.62s21.059 4.452 28.939 11.62c7.391 7.213 11.932 17.631 11.932 28.049s-4.541 20.435-11.932 28.049c-7.48 7.257-18.209 11.62-28.939 11.62zM645.254 243.868h-276.614c-10.863 0-19.501-8.37-19.501-18.922s8.682-18.966 19.501-18.966h276.614c10.819 0 19.501 8.415 19.501 18.966s-8.682 18.922-19.501 18.922zM645.254 136.615h-276.614c-10.863 0-19.501-8.37-19.501-18.922s8.682-18.922 19.501-18.922h276.614c10.819 0 19.501 8.37 19.501 18.922s-8.682 18.922-19.501 18.922zM645.254 351.121h-276.614c-10.863 0-19.501-8.415-19.501-18.966 0-10.463 8.682-18.922 19.501-18.922h276.614c10.819 0 19.501 8.415 19.501 18.922 0.045 10.552-8.682 18.966-19.501 18.966z" />
<glyph unicode="&#xe963;" glyph-name="icon-purchase-options" d="M709.339 119.918h-357.413l-23.808 138.094h466.542l82.944 424.155h-327.424v277.723h-41.947v-277.723h-253.294l-36.389 210.798c-1.755 10.13-10.459 17.518-20.663 17.518h-88.32v-42.313h70.693l129.719-751.982c-38.29-10.789-66.597-45.97-66.597-87.991 0-50.578 40.777-91.758 90.917-91.758s90.917 41.179 90.917 91.758c0 18.213-5.413 35.145-14.555 49.445h222.391c-9.106-14.299-14.555-31.232-14.555-49.445 0-50.578 40.777-91.758 90.917-91.758s90.917 41.179 90.917 91.758c-0.037 50.578-40.814 91.721-90.99 91.721zM262.217 639.817h245.943v-200.302l-104.046 105.033-29.659-29.952 154.661-156.16 154.697 156.16-29.659 29.952-104.082-105.033v200.302h276.919l-66.853-339.456h-439.369l-58.551 339.456zM334.263-21.211c-26.99 0-48.933 22.162-48.933 49.408s21.943 49.445 48.933 49.445c26.99 0 48.933-22.162 48.933-49.445 0.037-27.246-21.943-49.408-48.933-49.408zM709.339-21.211c-26.99 0-48.933 22.162-48.933 49.408s21.943 49.445 48.933 49.445 48.969-22.162 48.969-49.445c0-27.246-21.943-49.408-48.969-49.408z" />
<glyph unicode="&#xe964;" glyph-name="icon-error" d="M458.473 207.825c-0.002 0.164-0.003 0.358-0.003 0.553 0 14.503 5.87 27.635 15.364 37.15 4.831 4.794 10.54 8.713 16.863 11.495 6.506 3 13.695 4.706 21.272 4.795 0.090 0.001 0.159 0.001 0.228 0.001 7.333 0 14.306-1.542 20.612-4.318 6.353-2.793 12.061-6.713 16.897-11.511 4.761-4.699 8.674-10.25 11.491-16.407 2.79-6.354 4.331-13.36 4.331-20.725 0-0.035 0-0.071 0-0.106 0.001-0.105 0.001-0.236 0.001-0.367 0-7.432-1.541-14.503-4.322-20.913-2.806-6.171-6.722-11.725-11.496-16.408-4.814-4.705-10.537-8.486-16.881-11.054-6.393-2.738-13.426-4.274-20.814-4.314-7.576 0.013-14.773 1.552-21.321 4.324-12.558 5.272-22.625 15.34-27.905 27.914-2.623 6.103-4.147 12.798-4.316 19.828zM551.564 741.236v-232.727q0-18.153 0-35.375c0-11.636 0-23.273 0-34.909s0-23.738-3.258-36.305-2.793-25.6-4.655-39.098h-57.251c0 13.964-3.258 26.996-4.189 39.098s-2.327 24.669-3.258 36.305 0 23.273 0 34.909 0 23.273 0 35.375v232.727zM0 448c0-282.77 229.23-512 512-512s512 229.23 512 512c0 282.77-229.23 512-512 512s-512-229.23-512-512zM977.455 448c0-257.063-208.391-465.455-465.455-465.455s-465.455 208.391-465.455 465.455c0 257.063 208.391 465.455 465.455 465.455s465.455-208.391 465.455-465.455z" />
</font>
</defs>
</svg>
